<?xml version="1.0" standalone="no"?>
<!DOCTYPE svg PUBLIC "-//W3C//DTD SVG 20010904//EN"
 "http://www.w3.org/TR/2001/REC-SVG-20010904/DTD/svg10.dtd">
<svg version="1.0" xmlns="http://www.w3.org/2000/svg"
 width="1280.000000pt" height="1280.000000pt" viewBox="0 0 1280.000000 1280.000000"
 preserveAspectRatio="xMidYMid meet">
<metadata>
Created by potrace 1.15, written by Peter Selinger 2001-2017
</metadata>
<g transform="translate(0.000000,1280.000000) scale(0.100000,-0.100000)"
fill="#8bc34a" stroke="none">
<path d="M4828 12794 c-22 -7 -41 -76 -33 -117 4 -18 15 -46 25 -64 l18 -31
-111 5 c-125 6 -146 -2 -133 -53 16 -63 295 -313 411 -368 75 -36 269 -84 389
-98 117 -13 137 -23 220 -106 l58 -60 -83 20 c-200 46 -323 64 -593 83 -195
14 -213 17 -273 44 -66 31 -199 119 -227 150 -19 21 -11 31 47 60 28 14 32 21
35 64 3 41 -1 51 -27 77 -33 34 -58 37 -101 15 -53 -28 -65 -85 -30 -143 11
-18 20 -37 20 -42 0 -18 -54 -10 -108 15 -86 40 -122 73 -153 142 -30 66 -53
82 -104 69 -32 -8 -58 -58 -50 -97 9 -40 45 -65 114 -77 32 -6 90 -26 127 -45
38 -19 87 -40 109 -47 62 -20 107 -45 218 -121 l102 -71 -165 5 c-176 6 -292
27 -372 68 -23 12 -63 27 -89 35 -42 13 -68 34 -179 148 -148 151 -216 196
-368 246 -123 39 -275 70 -351 70 -145 0 -187 -69 -101 -167 17 -19 30 -38 30
-42 0 -5 -27 -14 -61 -20 -73 -12 -89 -24 -89 -62 0 -67 113 -140 287 -185
139 -36 348 -43 606 -19 l193 18 50 -22 c81 -36 137 -72 127 -82 -5 -5 -90
-20 -189 -34 -176 -23 -278 -43 -539 -105 -179 -42 -314 -49 -420 -22 -107 27
-195 66 -195 87 0 9 9 28 20 42 54 68 -7 153 -110 153 -39 0 -42 -3 -60 -42
-34 -75 -23 -119 35 -138 20 -6 50 -24 67 -38 l31 -27 -24 -6 c-41 -12 -153
-9 -178 4 -15 7 -28 27 -35 52 -12 42 -42 65 -86 65 -36 0 -88 -35 -96 -65
-10 -40 4 -74 39 -96 27 -17 41 -19 87 -13 146 18 350 18 425 0 39 -9 94 -22
123 -29 99 -22 76 -34 -184 -96 -346 -82 -355 -82 -614 8 -176 61 -300 84
-465 85 -150 1 -211 -11 -306 -59 -77 -39 -74 -72 11 -124 27 -17 50 -34 50
-39 0 -4 -27 -25 -59 -46 -101 -66 -105 -105 -15 -140 66 -26 306 -27 441 -2
167 30 316 88 391 151 60 50 112 65 264 75 96 6 175 18 238 34 105 28 124 31
115 16 -3 -5 -14 -10 -23 -10 -9 0 -57 -20 -105 -45 -49 -25 -170 -80 -270
-122 -100 -41 -207 -88 -237 -103 -31 -16 -85 -38 -120 -49 -36 -12 -90 -35
-121 -51 -70 -37 -243 -95 -329 -110 -36 -6 -74 -13 -86 -16 -18 -3 -22 -13
-27 -61 -8 -78 -50 -220 -93 -318 -20 -44 -45 -102 -56 -130 -11 -27 -34 -81
-50 -120 -17 -38 -64 -149 -105 -245 -41 -96 -99 -225 -129 -287 -29 -61 -54
-118 -54 -127 0 -8 -5 -18 -10 -21 -14 -9 -13 0 19 137 20 82 31 164 35 247 7
131 13 151 71 231 111 154 168 370 168 635 1 125 -3 158 -19 199 -35 90 -74
86 -140 -15 -21 -32 -41 -59 -46 -59 -4 0 -23 24 -42 54 -19 30 -39 57 -45 61
-36 21 -81 -40 -117 -160 -14 -46 -18 -92 -18 -200 1 -165 23 -287 85 -465 90
-259 90 -268 8 -614 -47 -199 -61 -241 -74 -239 -5 1 -15 25 -22 55 -7 29 -20
84 -29 122 -18 76 -18 283 0 426 6 46 4 60 -13 87 -36 57 -107 57 -141 0 -38
-62 -19 -125 45 -143 25 -7 45 -20 52 -35 13 -25 16 -137 4 -178 l-6 -24 -27
31 c-14 17 -32 47 -38 67 -19 58 -63 69 -139 35 l-43 -20 4 -55 c8 -98 85
-146 151 -95 14 11 33 20 42 20 20 0 60 -87 86 -189 33 -130 25 -230 -44 -526
-45 -190 -62 -283 -87 -469 -11 -82 -24 -154 -29 -159 -10 -10 -46 46 -82 127
l-22 50 18 193 c24 258 17 467 -19 606 -45 176 -118 287 -186 287 -35 0 -54
-30 -64 -102 -4 -27 -11 -48 -16 -48 -5 0 -24 13 -43 30 -98 86 -167 44 -167
-101 0 -76 31 -228 70 -351 50 -152 95 -220 246 -368 110 -107 135 -138 145
-172 6 -24 22 -64 35 -90 44 -87 65 -199 71 -378 l5 -165 -71 102 c-76 111
-101 156 -121 218 -7 22 -28 71 -47 109 -19 37 -39 95 -45 127 -12 69 -37 105
-77 114 -39 8 -89 -18 -97 -50 -13 -51 3 -73 70 -105 70 -33 102 -68 141 -152
25 -54 33 -108 15 -108 -5 0 -24 9 -42 20 -58 35 -115 23 -143 -30 -22 -43
-19 -68 15 -101 26 -26 36 -30 77 -27 43 3 50 7 64 35 29 58 39 66 60 47 31
-28 119 -161 150 -227 27 -60 30 -78 44 -273 8 -115 20 -243 25 -284 12 -87
55 -309 70 -360 10 -33 8 -32 -60 35 -38 37 -73 80 -79 94 -5 14 -14 70 -20
123 -13 117 -62 310 -96 381 -56 119 -304 396 -368 412 -52 13 -60 -6 -54
-128 4 -97 3 -108 -12 -101 -62 26 -99 34 -131 29 -59 -10 -65 -18 -65 -83 1
-75 50 -179 135 -286 127 -160 391 -346 525 -370 32 -6 53 -22 108 -79 156
-162 225 -267 286 -435 40 -110 45 -132 26 -132 -22 0 -146 121 -256 251 -111
131 -138 148 -192 125 -60 -24 -59 -99 1 -146 26 -21 86 -27 97 -10 3 6 17 10
30 10 29 0 130 -99 115 -114 -13 -13 -180 8 -219 28 -51 27 -98 21 -137 -18
-39 -39 -43 -67 -14 -113 22 -37 58 -58 117 -68 l42 -7 15 53 c26 85 39 99 95
99 37 0 68 -10 132 -42 67 -33 103 -61 186 -143 62 -62 103 -110 103 -123 0
-24 -113 -148 -191 -208 -82 -63 -173 -104 -231 -104 -55 0 -68 14 -94 99
l-15 53 -42 -7 c-59 -10 -95 -31 -117 -68 -29 -46 -25 -74 14 -113 39 -39 86
-45 137 -18 39 20 206 41 219 28 15 -15 -86 -114 -115 -114 -13 0 -27 4 -30
10 -11 17 -71 11 -97 -10 -60 -47 -61 -122 -1 -146 54 -23 81 -6 192 125 110
130 234 251 256 251 19 0 14 -22 -26 -132 -61 -168 -130 -273 -286 -435 -55
-57 -76 -73 -108 -79 -134 -24 -398 -210 -525 -370 -85 -107 -134 -211 -135
-286 0 -65 6 -73 65 -83 32 -5 69 3 131 29 15 7 16 -4 12 -101 -6 -121 2 -141
53 -129 64 16 313 294 369 413 34 71 83 264 96 381 6 53 15 109 20 123 6 14
41 57 79 94 68 67 70 68 60 35 -15 -51 -58 -273 -70 -360 -5 -41 -17 -169 -25
-285 l-14 -210 -40 -80 c-42 -84 -139 -220 -156 -218 -5 0 -22 20 -36 44 -23
41 -28 44 -72 47 -41 3 -51 -1 -77 -27 -34 -33 -37 -58 -15 -101 28 -53 85
-65 143 -30 18 11 37 20 42 20 18 0 10 -54 -15 -108 -39 -84 -71 -119 -141
-152 -67 -32 -83 -54 -70 -105 8 -32 58 -58 97 -50 40 9 65 45 77 114 6 32 26
90 45 127 19 38 40 87 47 109 20 62 45 107 121 218 l71 102 -5 -165 c-6 -179
-27 -291 -71 -378 -13 -26 -29 -66 -35 -90 -10 -34 -35 -65 -145 -172 -151
-148 -196 -216 -246 -368 -39 -123 -70 -275 -70 -351 0 -145 69 -187 167 -101
19 17 38 30 43 30 5 0 12 -21 16 -48 10 -72 29 -102 64 -102 68 0 141 111 186
287 36 139 43 348 19 606 l-18 193 22 50 c36 81 72 137 82 127 5 -5 18 -77 29
-159 25 -186 42 -279 87 -469 69 -296 77 -396 44 -526 -26 -102 -66 -189 -86
-189 -9 0 -28 9 -42 20 -66 51 -143 3 -151 -95 l-4 -55 43 -20 c76 -34 120
-23 139 35 6 20 24 50 38 67 l27 31 6 -24 c12 -41 9 -153 -4 -178 -7 -15 -27
-28 -52 -35 -64 -18 -83 -81 -45 -143 34 -57 105 -57 141 0 17 27 19 41 13 87
-18 143 -18 350 0 426 9 38 22 93 29 122 22 99 34 76 96 -184 82 -346 82 -355
-8 -614 -62 -178 -84 -300 -85 -465 0 -150 11 -211 59 -306 39 -77 72 -74 124
11 17 27 34 50 39 50 4 0 25 -27 46 -59 66 -101 105 -105 140 -15 16 41 20 74
19 199 0 265 -57 481 -168 635 -58 80 -64 100 -71 231 -4 83 -15 165 -35 247
-32 137 -33 146 -19 137 5 -3 10 -13 10 -21 0 -9 25 -66 54 -127 30 -62 88
-191 129 -287 41 -96 88 -206 105 -245 16 -38 39 -92 50 -120 11 -27 36 -86
56 -130 43 -98 85 -240 93 -318 5 -48 9 -58 27 -61 12 -3 50 -10 86 -16 86
-15 259 -73 329 -110 31 -16 85 -39 121 -51 35 -11 89 -33 120 -49 30 -15 137
-62 237 -103 100 -42 221 -97 270 -122 48 -25 96 -45 105 -45 9 0 20 -5 23
-10 9 -14 0 -13 -137 19 -80 19 -164 31 -242 35 -127 7 -180 22 -238 71 -43
36 -150 89 -231 114 -154 47 -388 71 -520 52 -169 -24 -191 -76 -66 -157 32
-21 59 -42 59 -46 0 -5 -23 -22 -50 -39 -85 -52 -88 -85 -11 -124 95 -48 156
-60 306 -59 165 1 289 24 465 85 259 90 268 90 614 8 199 -47 241 -61 239 -74
-1 -5 -25 -15 -55 -22 -29 -7 -84 -20 -123 -29 -75 -18 -279 -18 -425 0 -46 6
-60 4 -87 -13 -57 -36 -57 -107 0 -141 62 -38 125 -19 143 45 7 25 20 45 35
52 25 13 137 16 178 4 l24 -6 -31 -27 c-17 -14 -47 -32 -67 -38 -58 -19 -69
-63 -35 -137 18 -40 21 -43 60 -43 103 0 164 85 110 153 -11 14 -20 33 -20 42
0 21 88 60 195 87 106 27 241 20 420 -22 261 -62 363 -82 539 -105 99 -14 184
-29 189 -34 10 -10 -46 -46 -127 -82 l-50 -22 -193 18 c-258 24 -467 17 -606
-19 -174 -45 -287 -118 -287 -185 0 -38 16 -50 89 -62 34 -6 61 -15 61 -20 0
-4 -13 -23 -30 -42 -86 -98 -44 -167 101 -167 76 0 228 31 351 70 152 50 220
95 368 246 111 114 137 135 179 148 26 8 66 23 89 35 80 41 196 62 372 68
l165 5 -90 -62 c-121 -83 -162 -106 -226 -129 -30 -10 -83 -33 -118 -50 -35
-18 -90 -37 -122 -43 -69 -12 -105 -37 -114 -77 -8 -39 18 -89 50 -97 51 -13
74 3 105 70 31 70 63 100 150 140 56 26 110 34 110 16 0 -5 -9 -24 -20 -42
-35 -58 -23 -115 30 -143 43 -22 68 -19 101 15 26 26 30 36 27 77 -3 44 -6 49
-47 72 -24 14 -44 31 -45 36 -2 17 134 113 219 156 l80 40 210 14 c271 19 394
37 594 83 l83 20 -58 -60 c-83 -83 -103 -93 -220 -106 -120 -14 -314 -62 -389
-98 -116 -55 -395 -305 -411 -368 -13 -51 8 -59 133 -53 l111 5 -18 -31 c-26
-46 -33 -90 -20 -136 9 -35 15 -41 45 -47 75 -14 203 42 327 142 154 124 338
388 362 519 6 32 22 53 79 108 163 157 265 224 433 285 113 41 134 46 134 27
0 -22 -129 -154 -256 -261 -126 -107 -143 -133 -120 -187 24 -60 99 -59 146 1
21 26 27 86 10 97 -5 3 -10 17 -10 30 0 29 99 130 114 115 13 -13 -8 -180 -28
-219 -27 -51 -21 -98 18 -137 39 -39 67 -43 113 -14 37 22 58 58 67 117 l6 42
-52 16 c-84 25 -98 38 -98 94 0 37 10 68 42 132 33 67 61 103 143 186 70 70
110 103 125 103 15 0 55 -33 125 -103 82 -83 110 -119 143 -186 32 -64 42 -95
42 -132 0 -56 -14 -69 -98 -94 l-52 -16 6 -42 c9 -59 30 -95 67 -117 46 -29
74 -25 113 14 39 39 45 86 18 137 -20 39 -41 206 -28 219 15 15 114 -86 114
-115 0 -13 -4 -27 -10 -30 -17 -11 -11 -71 10 -97 47 -60 122 -61 146 -1 23
54 6 80 -120 187 -127 107 -256 239 -256 261 0 20 25 14 160 -38 132 -51 194
-88 295 -173 138 -118 183 -167 191 -210 24 -130 208 -394 362 -518 124 -100
252 -156 327 -142 30 6 36 12 45 47 13 46 6 90 -20 136 l-18 31 111 -5 c125
-6 146 2 133 53 -14 53 -257 281 -376 351 -77 46 -302 105 -450 119 -93 8
-110 17 -189 97 l-63 65 83 -20 c200 -46 323 -64 594 -83 l210 -14 80 -40 c81
-40 219 -138 220 -155 0 -5 -20 -21 -45 -36 -42 -25 -45 -29 -48 -73 -3 -41 1
-51 27 -77 33 -34 58 -37 101 -15 53 28 65 85 30 143 -11 18 -20 37 -20 42 0
30 127 -12 197 -66 18 -13 45 -52 62 -89 33 -68 55 -84 106 -71 32 8 58 58 50
97 -9 40 -45 65 -114 77 -32 6 -90 26 -127 45 -38 19 -87 40 -109 47 -62 20
-107 45 -218 121 l-102 71 165 -5 c176 -6 292 -27 372 -68 23 -12 63 -27 89
-35 42 -13 68 -34 179 -148 148 -151 216 -196 368 -246 123 -39 275 -70 351
-70 145 0 187 69 101 167 -17 19 -30 38 -30 43 0 5 21 12 48 16 72 10 102 29
102 64 0 68 -111 141 -287 186 -139 36 -348 43 -606 19 l-193 -18 -50 22 c-81
36 -137 72 -127 82 5 5 90 20 189 34 176 23 278 43 539 105 179 42 314 49 420
22 107 -27 195 -66 195 -87 0 -9 -9 -28 -20 -42 -54 -68 7 -153 110 -153 39 0
42 3 60 43 34 74 23 118 -35 137 -20 6 -50 24 -67 38 l-31 27 24 6 c41 12 153
9 178 -4 15 -7 28 -27 35 -52 18 -64 81 -83 143 -45 57 34 57 105 0 141 -27
17 -41 19 -87 13 -144 -18 -351 -18 -426 0 -38 9 -94 22 -124 29 -99 22 -75
34 186 96 346 82 355 82 614 -8 176 -61 300 -84 465 -85 150 -1 211 11 306 59
77 39 74 72 -11 124 -27 17 -50 34 -50 39 0 4 27 25 59 46 125 81 103 133 -66
157 -132 19 -366 -5 -520 -52 -81 -25 -188 -78 -231 -114 -58 -49 -111 -64
-238 -71 -78 -4 -162 -16 -242 -35 -137 -32 -146 -33 -137 -19 3 5 14 10 23
10 9 0 57 20 105 45 49 25 159 75 245 111 86 36 205 87 264 115 59 27 112 49
119 49 7 0 60 22 118 49 118 55 234 93 331 111 36 6 74 13 86 16 18 3 22 13
27 61 8 78 50 220 93 318 20 44 45 103 56 130 11 28 34 82 50 120 17 39 70
162 118 275 48 113 106 241 128 285 23 44 42 88 42 97 0 9 5 20 10 23 14 9 13
0 -19 -137 -20 -82 -32 -165 -36 -247 -7 -133 -13 -152 -71 -232 -120 -165
-196 -500 -166 -737 22 -183 75 -209 158 -81 21 32 42 59 46 59 5 0 22 -23 39
-50 52 -85 85 -88 124 -11 48 95 60 156 59 306 -1 165 -24 289 -85 465 -90
259 -90 268 -8 614 62 261 74 285 96 186 7 -30 20 -86 29 -124 18 -75 18 -282
0 -426 -6 -46 -4 -60 13 -87 36 -57 107 -57 141 0 38 62 19 125 -45 143 -25 7
-45 20 -52 35 -13 25 -16 137 -4 178 l6 24 27 -31 c14 -17 32 -47 38 -67 19
-58 63 -69 138 -35 39 18 42 21 42 60 0 103 -85 164 -154 109 -42 -33 -58 -22
-94 68 -70 175 -68 281 6 608 59 254 65 287 92 489 11 82 24 154 29 159 10 10
46 -46 82 -127 l22 -50 -18 -193 c-24 -258 -17 -467 19 -606 45 -176 118 -287
186 -287 35 0 54 30 64 103 4 26 11 47 16 47 5 0 24 -13 43 -30 98 -86 167
-44 167 101 0 76 -31 228 -70 351 -50 152 -95 220 -246 368 -114 111 -135 137
-148 179 -8 26 -23 66 -35 89 -41 80 -62 196 -68 372 l-5 165 71 -102 c76
-111 101 -156 121 -218 7 -22 28 -71 47 -109 19 -37 39 -95 45 -127 12 -69 37
-105 77 -114 39 -8 89 18 97 50 13 51 -3 74 -69 104 -69 31 -102 67 -142 153
-25 54 -33 108 -15 108 5 0 24 -9 42 -20 58 -35 115 -23 143 30 22 43 19 68
-15 101 -26 26 -36 30 -77 27 -44 -3 -48 -6 -73 -48 -15 -25 -31 -45 -36 -45
-17 1 -115 139 -155 220 l-40 80 -14 210 c-19 271 -37 394 -83 594 l-20 83 60
-58 c83 -83 93 -103 106 -220 13 -119 62 -315 97 -387 56 -119 305 -397 369
-413 51 -12 59 8 53 129 -4 97 -3 108 12 101 62 -26 99 -34 131 -29 59 10 65
18 65 83 -1 75 -50 179 -135 286 -127 160 -391 346 -525 370 -32 6 -53 22
-108 79 -156 162 -225 267 -286 435 -40 110 -45 132 -26 132 22 0 146 -121
256 -251 111 -131 138 -148 192 -125 60 24 59 99 -1 146 -26 21 -86 27 -97 10
-3 -5 -17 -10 -30 -10 -29 0 -130 99 -115 114 13 13 180 -8 219 -28 51 -27 98
-21 137 18 39 39 43 67 14 113 -22 37 -58 58 -117 68 l-42 7 -15 -53 c-26 -85
-39 -99 -94 -99 -58 0 -149 41 -231 104 -78 60 -191 184 -191 208 0 13 41 61
103 123 83 82 119 110 186 143 64 32 95 42 132 42 56 0 69 -14 95 -99 l15 -53
42 7 c59 10 95 31 117 68 29 46 25 74 -14 113 -39 39 -86 45 -137 18 -39 -20
-206 -41 -219 -28 -15 15 86 114 115 114 13 0 27 -4 30 -10 11 -17 71 -11 97
10 60 47 61 122 1 146 -54 23 -81 6 -192 -125 -110 -130 -234 -251 -256 -251
-19 0 -14 22 26 132 61 168 130 273 286 435 55 57 76 73 108 79 134 24 398
210 525 370 85 107 134 211 135 286 0 65 -6 73 -65 83 -32 5 -69 -3 -131 -29
-15 -7 -16 4 -12 101 6 122 -2 141 -54 128 -63 -15 -313 -294 -367 -410 -36
-75 -84 -269 -98 -389 -13 -117 -23 -137 -106 -220 l-60 -58 20 83 c46 200 64
323 83 594 l14 210 40 80 c42 84 139 220 156 218 6 0 22 -20 36 -44 23 -41 28
-44 72 -47 41 -3 51 1 77 27 34 33 37 58 15 101 -28 53 -85 65 -143 30 -18
-11 -37 -20 -42 -20 -18 0 -10 54 15 108 40 86 73 122 142 153 66 30 82 53 69
104 -8 32 -58 58 -97 50 -40 -9 -65 -45 -77 -114 -6 -32 -25 -87 -43 -122 -17
-35 -40 -88 -50 -118 -23 -64 -46 -105 -129 -226 l-62 -90 5 165 c6 176 27
292 68 372 12 23 27 63 35 89 13 42 34 68 148 179 151 148 196 216 246 368 39
123 70 275 70 351 0 145 -69 187 -167 101 -19 -17 -38 -30 -43 -30 -5 0 -12
21 -16 48 -10 72 -29 102 -64 102 -68 0 -141 -111 -186 -287 -36 -139 -43
-348 -19 -606 l18 -193 -22 -50 c-36 -81 -72 -137 -82 -127 -5 5 -18 77 -29
159 -26 192 -42 277 -96 509 -50 213 -65 362 -45 455 18 86 73 214 93 218 10
2 30 -6 44 -17 69 -55 154 6 154 109 0 39 -3 42 -42 60 -75 34 -119 23 -138
-35 -6 -20 -24 -50 -38 -67 l-27 -31 -6 24 c-12 41 -9 153 4 178 7 15 27 28
52 35 64 18 83 81 45 143 -34 57 -105 57 -141 0 -17 -27 -19 -41 -13 -87 18
-144 18 -351 0 -426 -9 -38 -22 -93 -29 -122 -22 -99 -34 -76 -96 184 -82 346
-82 355 8 614 61 176 84 300 85 465 0 108 -4 153 -18 200 -36 120 -81 181
-117 160 -6 -4 -26 -31 -45 -61 -19 -30 -38 -54 -42 -54 -5 0 -25 27 -46 59
-81 125 -133 103 -157 -66 -19 -131 5 -366 52 -520 25 -81 69 -171 114 -233
57 -80 63 -99 70 -231 4 -82 16 -165 36 -247 32 -137 33 -146 19 -137 -5 3
-10 14 -10 23 0 9 -19 53 -41 97 -23 44 -81 172 -129 285 -48 113 -101 237
-118 275 -16 39 -39 93 -50 120 -11 28 -36 86 -56 130 -43 98 -85 240 -93 318
-5 48 -9 58 -27 61 -12 3 -50 10 -86 16 -97 18 -213 56 -331 111 -58 27 -111
49 -118 49 -7 0 -60 22 -119 49 -59 28 -178 79 -264 115 -86 36 -196 86 -245
111 -48 25 -96 45 -105 45 -9 0 -20 5 -23 10 -9 15 10 12 115 -16 63 -16 142
-28 238 -34 152 -10 204 -25 264 -75 75 -63 224 -121 391 -151 135 -25 375
-24 441 2 90 35 86 74 -15 140 -32 21 -59 42 -59 46 0 5 23 22 50 39 85 52 88
85 11 124 -95 48 -156 60 -306 59 -165 -1 -289 -24 -465 -85 -259 -90 -268
-90 -614 -8 -261 62 -285 74 -186 96 30 7 86 20 124 29 75 18 282 18 426 0 46
-6 60 -4 87 13 57 36 57 107 0 141 -62 38 -125 19 -143 -45 -7 -25 -20 -45
-35 -52 -25 -13 -137 -16 -178 -4 l-24 6 31 27 c17 14 47 32 67 38 58 19 69
63 35 138 -18 39 -21 42 -60 42 -103 0 -164 -85 -110 -153 11 -14 20 -33 20
-42 0 -21 -88 -60 -195 -87 -106 -27 -241 -20 -420 22 -261 62 -363 82 -539
105 -99 14 -184 29 -189 34 -10 10 46 46 127 82 l50 22 193 -18 c258 -24 467
-17 606 19 176 45 287 118 287 186 0 35 -30 54 -102 64 -27 4 -48 11 -48 16 0
5 13 24 30 43 86 98 44 167 -101 167 -76 0 -228 -31 -351 -70 -152 -50 -220
-95 -368 -246 -111 -114 -137 -135 -179 -148 -26 -8 -66 -23 -89 -35 -80 -41
-196 -62 -372 -68 l-165 -5 102 71 c111 76 156 101 218 121 22 7 71 28 109 47
37 19 95 39 127 45 69 12 105 37 114 77 8 39 -18 89 -50 97 -51 13 -73 -3
-105 -70 -33 -70 -68 -102 -152 -141 -54 -25 -108 -33 -108 -15 0 5 9 24 20
42 35 58 23 115 -30 143 -43 22 -68 19 -101 -15 -26 -26 -30 -36 -27 -77 3
-43 7 -50 35 -64 58 -29 66 -39 47 -60 -28 -31 -161 -119 -227 -150 -60 -27
-78 -30 -273 -44 -270 -19 -393 -37 -593 -83 l-83 -20 63 65 c79 80 96 89 189
97 148 14 373 73 450 119 119 70 362 298 376 351 13 51 -8 59 -133 53 l-111
-5 18 31 c26 46 33 90 20 136 -9 35 -15 41 -45 47 -51 9 -97 -2 -181 -46 -146
-75 -276 -201 -397 -384 -67 -102 -101 -172 -111 -231 -6 -32 -22 -53 -79
-108 -163 -156 -252 -216 -427 -282 -115 -44 -140 -49 -140 -30 0 22 129 154
256 261 126 107 143 133 120 187 -24 60 -99 59 -146 -1 -21 -26 -27 -86 -10
-97 6 -3 10 -17 10 -30 0 -29 -99 -130 -114 -115 -13 13 8 180 28 219 27 51
21 98 -18 137 -39 39 -67 43 -113 14 -37 -22 -58 -58 -67 -117 l-6 -42 52 -16
c84 -25 98 -38 98 -93 0 -58 -41 -149 -104 -231 -57 -74 -183 -191 -206 -191
-23 0 -149 117 -206 191 -63 82 -104 173 -104 231 0 55 14 68 98 93 l52 16 -6
42 c-9 59 -30 95 -67 117 -46 29 -74 25 -113 -14 -39 -39 -45 -86 -18 -137 20
-39 41 -206 28 -219 -15 -15 -114 86 -114 115 0 13 5 27 10 30 17 11 11 71
-10 97 -47 60 -122 61 -146 1 -23 -54 -6 -80 120 -187 127 -107 256 -239 256
-261 0 -19 -22 -14 -132 26 -168 61 -273 130 -435 286 -57 55 -73 76 -79 108
-24 134 -210 398 -370 525 -124 99 -265 155 -336 134z m137 -58 c145 -68 378
-294 450 -437 45 -87 26 -73 -70 53 -107 141 -190 224 -302 300 -76 51 -170
94 -181 83 -8 -8 23 -30 100 -71 78 -42 219 -153 261 -206 53 -66 22 -52 -64
29 -96 90 -150 133 -196 157 -34 17 -77 22 -71 7 2 -5 50 -40 108 -79 98 -65
176 -132 154 -132 -5 0 -52 32 -104 70 -52 39 -100 70 -106 70 -6 0 -17 -7
-24 -15 -7 -8 -16 -12 -22 -9 -15 9 -68 132 -68 157 0 52 54 61 135 23z m2993
12 c19 -19 14 -53 -17 -122 -34 -72 -43 -82 -61 -61 -7 8 -18 15 -24 15 -6 0
-54 -31 -106 -70 -52 -38 -99 -70 -104 -70 -22 0 56 67 154 132 58 39 107 74
108 79 6 15 -37 10 -71 -7 -46 -24 -100 -67 -196 -157 -86 -81 -117 -95 -64
-29 42 53 183 164 261 206 77 41 108 63 100 71 -11 11 -105 -32 -181 -83 -112
-76 -195 -159 -302 -300 -52 -68 -95 -119 -95 -113 0 25 52 112 108 182 171
215 430 387 490 327z m-3170 -214 c174 -33 341 -125 486 -267 l101 -99 -80 43
c-44 23 -102 57 -130 76 -57 38 -69 41 -62 13 3 -11 2 -20 -2 -20 -3 0 -38 20
-77 44 -87 54 -149 86 -166 86 -7 0 -2 -10 12 -21 52 -42 278 -189 350 -228
73 -40 74 -41 39 -41 -114 0 -306 106 -481 265 -66 61 -148 152 -148 164 0 11
55 5 158 -15z m3382 16 c0 -13 -72 -92 -145 -161 -169 -158 -370 -269 -483
-269 -36 0 -36 1 38 41 72 39 298 186 350 228 14 11 19 21 12 21 -17 0 -79
-32 -166 -86 -39 -24 -74 -44 -77 -44 -4 0 -5 9 -2 20 7 28 -5 25 -62 -13 -28
-19 -86 -53 -130 -76 l-80 -43 101 99 c170 167 368 262 594 286 19 2 38 5 43
5 4 1 7 -2 7 -8z m-4845 -45 c142 -24 276 -71 358 -125 77 -51 191 -149 183
-157 -3 -3 -40 22 -83 55 -129 98 -242 153 -398 193 -91 24 -252 35 -275 20
-22 -15 -8 -22 72 -32 141 -18 213 -32 273 -51 77 -25 195 -79 195 -89 0 -4
-39 3 -87 17 -258 72 -403 99 -403 75 0 -12 25 -21 58 -21 39 0 73 -11 66 -21
-7 -12 -96 -12 -127 0 -25 10 -87 105 -87 134 0 8 6 18 13 21 17 8 135 -2 242
-19z m6389 19 c9 -3 16 -13 16 -21 0 -29 -62 -124 -87 -134 -31 -12 -120 -12
-127 0 -7 10 27 21 66 21 33 0 58 9 58 21 0 24 -145 -3 -402 -75 -49 -14 -88
-21 -88 -17 0 10 118 64 195 89 60 19 132 33 273 51 80 10 94 17 72 32 -23 15
-184 4 -275 -20 -156 -40 -269 -95 -398 -193 -43 -33 -80 -58 -83 -55 -8 8
106 106 183 157 47 31 106 58 170 79 84 26 137 37 313 64 43 7 98 7 114 1z
m-5580 -110 c9 -3 16 -13 16 -21 0 -9 -6 -13 -14 -10 -8 3 -22 -3 -31 -13 -10
-11 -22 -17 -26 -14 -11 6 -12 48 -2 57 8 9 36 9 57 1z m4594 -17 c2 -10 1
-25 -2 -34 -6 -14 -9 -14 -29 4 -12 11 -28 18 -34 16 -7 -3 -13 2 -13 10 0 31
72 35 78 4z m-4208 -16 c0 -6 -4 -13 -10 -16 -13 -8 -13 -45 0 -45 6 0 13 7
16 15 7 18 24 20 24 3 0 -37 -70 -64 -98 -36 -17 17 -15 54 4 72 17 17 64 22
64 7z m3824 -7 c19 -18 21 -55 4 -72 -27 -27 -98 -2 -98 35 0 18 16 17 24 -2
3 -8 10 -15 16 -15 13 0 13 37 0 45 -18 11 -10 25 14 25 14 0 32 -7 40 -16z
m-4789 -83 c145 -42 166 -67 47 -58 -82 6 -126 1 -116 -14 3 -5 21 -9 39 -9
40 0 235 -37 244 -46 9 -9 -90 4 -286 37 -172 29 -279 37 -268 20 8 -14 123
-38 339 -72 105 -17 206 -34 226 -38 34 -8 34 -8 -24 -16 -89 -12 -400 1 -475
19 -113 29 -281 122 -281 157 0 27 105 38 325 34 105 -1 208 -8 230 -14z
m6209 2 c16 -5 31 -14 33 -20 11 -32 -159 -129 -278 -159 -75 -18 -386 -31
-475 -19 -58 8 -58 8 -24 16 20 4 121 21 226 38 216 34 331 58 339 72 11 17
-96 9 -268 -20 -196 -33 -295 -46 -286 -37 9 9 204 46 244 46 18 0 36 4 39 9
9 14 -42 20 -121 14 -47 -4 -73 -2 -73 4 0 14 60 38 130 52 30 6 64 13 75 15
34 8 408 -2 439 -11z m-3594 -55 c24 -39 23 -91 -2 -96 -14 -3 -17 3 -15 34 1
29 -2 39 -15 42 -11 2 -18 -6 -23 -27 -8 -36 -13 -38 -31 -13 -18 23 -17 52 3
74 26 29 60 23 83 -14z m542 15 c21 -19 23 -51 4 -75 -18 -25 -23 -23 -31 13
-5 21 -12 29 -23 27 -13 -3 -16 -13 -15 -42 2 -31 -1 -37 -15 -34 -25 5 -26
57 -2 96 22 36 53 42 82 15z m-1542 -13 c0 -5 -2 -10 -4 -10 -3 0 -8 5 -11 10
-3 6 -1 10 4 10 6 0 11 -4 11 -10z m2480 6 c0 -3 -4 -8 -10 -11 -5 -3 -10 -1
-10 4 0 6 5 11 10 11 6 0 10 -2 10 -4z m-1733 -97 c16 -14 17 -61 1 -77 -20
-20 -45 -14 -72 19 -28 33 -34 64 -13 73 17 7 67 -2 84 -15z m1047 15 c24 -9
19 -38 -10 -73 -41 -49 -89 -34 -82 26 4 38 52 62 92 47z m-4108 -118 c18 -14
18 -15 -9 -25 -32 -13 -31 -34 1 -39 40 -6 23 -22 -24 -22 -81 0 -106 31 -62
77 24 26 65 30 94 9z m7181 -8 c47 -44 20 -78 -61 -78 -47 0 -64 16 -24 22 32
5 33 26 1 39 -27 10 -27 11 -9 25 28 20 66 17 93 -8z m-5633 -74 c9 -3 13 -10
10 -15 -7 -12 -81 -12 -89 0 -9 15 50 26 79 15z m346 -4 c0 -6 -29 -10 -67 -9
-47 0 -62 3 -48 9 28 12 115 12 115 0z m210 0 c0 -5 -21 -10 -47 -9 -36 0 -43
3 -28 9 28 12 75 12 75 0z m2955 0 c15 -6 8 -9 -27 -9 -27 -1 -48 4 -48 9 0
12 47 12 75 0z m250 0 c14 -6 -1 -9 -47 -9 -39 -1 -68 3 -68 9 0 12 87 12 115
0z m292 4 c13 -4 20 -10 17 -15 -7 -12 -81 -12 -88 0 -11 17 31 25 71 15z
m-4182 -24 c-3 -5 -23 -10 -43 -9 -30 0 -33 2 -17 9 28 12 67 12 60 0z m958 3
c-13 -2 -33 -2 -45 0 -13 2 -3 4 22 4 25 0 35 -2 23 -4z m2380 0 c-13 -2 -33
-2 -45 0 -13 2 -3 4 22 4 25 0 35 -2 23 -4z m972 -3 c16 -7 13 -9 -17 -9 -20
-1 -40 4 -43 9 -7 12 32 12 60 0z m-6050 -30 c22 -43 20 -80 -5 -80 -23 0 -70
42 -70 61 0 17 30 49 46 49 8 0 20 -13 29 -30z m7787 13 c24 -22 23 -39 -7
-68 -33 -34 -65 -33 -65 0 0 32 26 85 42 85 6 0 20 -7 30 -17z m-5442 -22 c0
-11 -71 -45 -122 -59 -21 -6 -96 -8 -180 -5 -236 9 -390 -18 -553 -97 -253
-122 -303 -277 -84 -257 33 3 59 3 59 1 0 -3 -18 -39 -40 -80 -64 -121 -53
-135 76 -109 96 20 171 48 291 108 203 102 436 290 463 373 9 26 26 40 93 76
l82 43 220 0 c213 -1 335 -13 335 -35 0 -5 -19 -14 -42 -20 -24 -6 -105 -33
-181 -60 -75 -28 -155 -50 -176 -50 -21 0 -79 -12 -127 -26 -49 -15 -120 -35
-159 -44 -96 -24 -102 -27 -115 -60 -21 -51 19 -99 83 -100 48 0 87 35 87 80
0 16 8 38 18 48 19 19 179 68 189 59 2 -3 -26 -38 -64 -79 -91 -95 -103 -115
-103 -160 0 -32 4 -40 26 -48 48 -19 90 -12 123 19 36 34 38 45 11 89 -11 18
-20 41 -20 51 0 54 219 187 380 231 128 35 177 29 363 -41 300 -114 577 -235
577 -252 0 -6 -36 -8 -97 -4 -83 4 -112 11 -188 42 -241 100 -525 127 -745 70
-108 -28 -180 -70 -180 -104 0 -44 114 -115 205 -127 l46 -7 -24 -26 c-43 -45
-51 -69 -33 -96 21 -32 70 -45 186 -52 169 -9 291 24 475 130 272 156 407 166
634 49 245 -127 279 -143 341 -159 80 -21 294 -24 358 -5 53 16 79 51 61 84
-6 13 -22 35 -36 49 l-24 26 46 7 c91 12 205 83 205 127 0 35 -72 76 -181 104
-217 57 -504 30 -744 -70 -76 -31 -105 -38 -187 -42 -62 -4 -98 -2 -98 4 0 18
321 157 618 267 143 54 203 58 322 26 166 -46 380 -177 380 -233 0 -12 -9 -33
-20 -47 -27 -35 -25 -58 11 -91 33 -31 75 -38 123 -19 22 8 26 16 26 48 0 45
-12 65 -103 160 -38 41 -66 76 -64 79 10 9 170 -40 189 -59 10 -10 18 -32 18
-48 0 -45 39 -80 89 -80 32 0 44 6 65 31 30 35 30 39 15 73 -13 29 -20 32
-114 56 -38 9 -110 29 -159 44 -48 14 -106 26 -127 26 -21 0 -101 22 -176 50
-76 27 -157 54 -180 60 -119 30 12 54 292 55 l220 0 82 -43 c68 -36 84 -49 93
-76 28 -85 260 -271 470 -376 113 -57 190 -85 284 -105 129 -26 140 -12 76
109 -22 41 -40 77 -40 80 0 2 26 2 59 -1 219 -20 169 135 -84 257 -164 79
-317 106 -554 97 -111 -4 -156 -2 -195 10 -58 17 -106 43 -106 57 0 6 114 7
303 3 406 -9 571 -21 649 -48 143 -47 338 -174 338 -219 0 -10 -7 -31 -15 -46
-37 -72 -6 -134 66 -134 32 0 47 6 71 30 38 38 33 68 -20 123 -33 34 -34 37
-14 37 33 0 119 -35 157 -65 33 -25 35 -28 33 -87 -1 -53 1 -63 23 -80 34 -29
105 -20 136 17 47 55 19 113 -67 135 -25 6 -74 29 -110 50 -73 44 -188 90
-224 90 -13 0 -53 23 -88 50 -36 28 -89 64 -119 80 -65 35 -61 36 78 9 273
-52 523 -140 583 -204 24 -26 25 -32 26 -158 0 -146 9 -180 80 -320 78 -154
321 -407 390 -407 34 0 54 26 54 71 0 45 21 61 48 36 22 -20 102 -56 124 -57
73 -1 61 149 -26 305 -42 76 -128 152 -359 314 -96 68 -186 135 -199 148 l-23
26 30 -7 c17 -4 78 -34 136 -67 58 -32 166 -82 240 -110 74 -28 161 -65 194
-82 100 -53 253 -211 270 -279 5 -20 -1 -32 -34 -64 -51 -48 -56 -64 -36 -109
23 -46 71 -75 127 -75 38 0 46 4 56 25 22 47 15 98 -19 145 -18 24 -42 68 -56
98 -13 30 -42 81 -64 114 -23 33 -39 61 -37 63 2 2 55 -30 118 -72 158 -105
338 -285 443 -443 42 -63 74 -116 72 -118 -2 -2 -30 14 -63 37 -33 22 -84 51
-114 64 -30 14 -74 38 -98 56 -47 34 -98 41 -145 19 -57 -26 -24 -147 49 -182
48 -23 53 -21 103 30 38 38 50 44 71 39 68 -17 226 -169 279 -270 17 -33 54
-120 82 -194 28 -74 78 -182 110 -240 64 -115 79 -151 62 -151 -13 0 -54 53
-198 257 -143 202 -206 271 -282 311 -159 86 -302 97 -301 24 1 -22 37 -102
57 -124 25 -27 9 -48 -36 -48 -45 0 -71 -20 -71 -54 0 -68 255 -314 405 -390
139 -71 177 -80 322 -80 126 -1 132 -2 158 -26 69 -65 184 -414 220 -670 l6
-45 -30 54 c-17 30 -53 83 -81 119 -27 35 -50 75 -50 88 0 36 -46 151 -90 224
-21 36 -43 84 -49 106 -24 89 -81 119 -136 71 -37 -31 -46 -102 -17 -136 17
-22 27 -24 80 -23 59 2 62 0 87 -33 30 -38 65 -124 65 -157 0 -20 -3 -19 -37
14 -55 53 -85 58 -123 20 -32 -32 -40 -84 -20 -122 15 -28 75 -36 116 -16 19
9 43 16 54 16 45 0 171 -193 219 -338 27 -78 39 -243 48 -649 4 -189 3 -303
-3 -303 -14 0 -40 48 -58 108 -12 41 -14 81 -9 185 10 234 -18 398 -97 562
-121 253 -277 303 -257 84 3 -33 3 -59 1 -59 -3 0 -39 18 -80 40 -84 44 -110
49 -119 21 -7 -25 20 -158 49 -235 95 -252 329 -577 443 -616 25 -9 40 -27 75
-93 l43 -82 0 -220 c-1 -213 -13 -335 -35 -335 -5 0 -14 19 -20 43 -6 23 -33
104 -60 180 -28 75 -50 155 -50 176 0 21 -12 79 -26 127 -15 49 -35 121 -44
159 -24 96 -27 102 -60 115 -51 21 -99 -19 -100 -83 0 -46 36 -87 75 -87 47 0
64 -17 84 -88 11 -37 22 -80 26 -95 l6 -29 -28 20 c-15 11 -44 37 -63 57 -61
65 -109 95 -152 95 -32 0 -40 -4 -48 -26 -19 -48 -12 -90 19 -123 34 -36 45
-38 89 -11 18 11 41 20 51 20 54 0 187 -219 231 -380 35 -128 29 -177 -41
-363 -114 -300 -235 -577 -252 -577 -6 0 -8 36 -4 98 4 82 11 111 42 187 100
240 127 527 70 744 -28 109 -69 181 -104 181 -44 0 -115 -114 -127 -205 l-7
-46 -26 24 c-91 85 -138 38 -148 -144 -9 -151 15 -263 84 -397 127 -245 144
-280 158 -337 19 -75 19 -155 0 -230 -14 -57 -31 -93 -157 -336 -67 -130 -83
-198 -83 -359 0 -138 13 -191 50 -216 27 -18 51 -9 96 33 l26 24 7 -46 c12
-91 83 -205 127 -205 35 0 76 72 104 181 57 217 30 504 -70 744 -31 76 -38
105 -42 188 -4 61 -2 97 4 97 17 0 138 -277 252 -577 70 -186 76 -235 41 -363
-44 -161 -177 -380 -231 -380 -10 0 -33 9 -51 20 -44 27 -55 25 -89 -11 -31
-33 -38 -75 -19 -123 8 -22 16 -26 48 -26 43 0 91 30 152 95 19 20 48 46 63
57 l28 20 -6 -29 c-4 -15 -15 -58 -26 -95 -20 -71 -37 -88 -84 -88 -39 0 -75
-41 -75 -87 1 -64 49 -104 100 -83 33 13 36 19 60 115 9 39 29 110 44 159 14
48 26 106 26 127 0 21 22 101 50 176 27 76 54 157 60 181 30 117 54 -13 55
-293 l0 -220 -43 -82 c-35 -66 -50 -84 -75 -93 -114 -39 -348 -364 -443 -616
-29 -77 -56 -210 -49 -235 9 -28 35 -23 119 21 41 22 77 40 80 40 2 0 2 -26
-1 -59 -20 -219 136 -169 257 84 79 164 107 328 97 562 -5 104 -3 144 9 185
18 60 44 108 58 108 6 0 7 -114 3 -302 -9 -407 -21 -572 -48 -650 -30 -92
-105 -229 -156 -287 -47 -54 -69 -61 -113 -36 -36 21 -86 19 -110 -5 -32 -32
-27 -94 10 -132 38 -38 68 -33 123 20 34 33 37 34 37 14 0 -33 -35 -119 -65
-157 -25 -33 -28 -35 -87 -33 -53 1 -63 -1 -80 -23 -29 -34 -20 -105 17 -136
55 -48 112 -18 136 71 6 22 28 70 49 106 44 73 90 188 90 224 0 13 23 53 50
88 28 36 64 89 80 119 34 63 35 59 14 -52 -53 -282 -144 -548 -209 -609 -26
-24 -32 -25 -158 -26 -145 0 -183 -9 -322 -80 -152 -77 -405 -321 -405 -390 0
-34 26 -54 71 -54 45 0 61 -21 36 -48 -20 -22 -56 -102 -57 -124 -1 -73 149
-61 305 26 76 42 152 128 314 359 68 96 135 186 148 199 l26 23 -7 -30 c-4
-16 -34 -78 -67 -136 -32 -58 -82 -166 -110 -240 -28 -74 -65 -161 -82 -194
-53 -101 -211 -253 -279 -270 -21 -5 -33 1 -71 39 -50 51 -55 53 -103 30 -73
-35 -106 -156 -49 -182 47 -22 98 -15 145 19 24 18 68 42 98 56 30 13 81 42
114 64 33 23 61 39 63 37 2 -2 -30 -55 -72 -118 -105 -158 -285 -338 -443
-443 -63 -42 -116 -74 -118 -72 -2 2 14 30 37 63 22 33 51 84 64 114 14 30 38
74 56 98 49 68 39 169 -18 171 -70 3 -120 -23 -146 -76 -20 -45 -15 -61 36
-109 33 -32 39 -44 34 -64 -17 -68 -170 -226 -270 -279 -33 -17 -120 -54 -194
-82 -74 -28 -182 -78 -240 -110 -58 -33 -119 -63 -136 -67 l-30 -7 23 26 c13
13 103 80 199 148 231 162 317 238 359 314 87 156 99 306 26 305 -22 -1 -102
-37 -124 -57 -27 -25 -48 -9 -48 36 0 45 -20 71 -54 71 -69 0 -312 -253 -390
-407 -71 -140 -80 -174 -80 -320 -1 -126 -2 -133 -26 -158 -65 -69 -416 -184
-670 -220 l-45 -6 54 30 c30 17 83 53 119 81 35 27 75 50 88 50 36 0 151 46
224 90 36 21 84 43 106 49 89 24 119 81 71 136 -31 37 -102 46 -136 17 -22
-17 -24 -27 -23 -80 2 -59 0 -62 -33 -87 -38 -30 -124 -65 -157 -65 -20 0 -19
3 14 38 53 54 58 84 20 122 -38 37 -100 42 -132 10 -24 -24 -26 -74 -5 -110
25 -44 18 -66 -36 -113 -58 -51 -195 -126 -287 -156 -78 -27 -243 -39 -649
-48 -189 -4 -303 -3 -303 3 0 14 48 40 107 57 39 12 82 14 185 10 236 -10 400
18 563 97 253 121 303 277 84 257 -33 -3 -59 -3 -59 -1 0 3 18 39 40 80 44 84
49 110 21 119 -25 7 -158 -20 -235 -49 -252 -95 -577 -329 -616 -443 -9 -25
-27 -40 -93 -75 l-82 -43 -220 0 c-213 1 -335 13 -335 35 0 5 19 14 43 20 23
6 104 33 180 60 75 28 155 50 176 50 21 0 79 12 127 26 49 15 121 35 159 44
94 24 101 27 114 56 15 34 15 38 -15 73 -21 25 -33 31 -65 31 -50 0 -89 -35
-89 -80 0 -16 -8 -38 -18 -48 -19 -19 -179 -68 -189 -59 -2 3 26 38 64 79 91
95 103 115 103 160 0 32 -4 40 -26 48 -48 19 -90 12 -123 -19 -36 -33 -38 -56
-11 -91 11 -14 20 -35 20 -47 0 -56 -214 -187 -380 -233 -119 -32 -179 -28
-322 26 -297 110 -618 249 -618 267 0 6 36 8 98 4 82 -4 111 -11 187 -42 240
-100 527 -127 744 -70 109 28 181 69 181 104 0 44 -114 115 -205 127 l-46 7
24 26 c14 14 30 36 36 49 18 33 -8 68 -61 84 -64 19 -278 16 -358 -5 -62 -16
-96 -32 -341 -159 -203 -105 -335 -105 -538 0 -245 127 -279 143 -341 159 -80
21 -294 24 -358 5 -53 -16 -79 -51 -61 -84 6 -13 22 -35 36 -49 l24 -26 -46
-7 c-91 -12 -205 -83 -205 -127 0 -34 72 -76 180 -104 220 -57 504 -30 745 70
76 31 105 38 188 42 61 4 97 2 97 -4 0 -17 -277 -138 -577 -252 -186 -70 -235
-76 -363 -41 -161 44 -380 177 -380 231 0 10 9 33 20 51 27 44 25 55 -11 89
-33 31 -75 38 -123 19 -22 -8 -26 -16 -26 -48 0 -45 12 -65 103 -160 38 -41
66 -76 64 -79 -10 -9 -170 40 -189 59 -10 10 -18 32 -18 48 0 45 -39 80 -87
80 -64 -1 -104 -49 -83 -100 13 -33 19 -36 115 -60 39 -9 110 -29 159 -44 48
-14 106 -26 127 -26 21 0 101 -22 176 -50 76 -27 157 -54 181 -60 118 -30 -13
-54 -293 -55 l-220 0 -82 43 c-67 36 -84 50 -93 76 -27 83 -260 271 -463 373
-120 60 -195 88 -291 108 -129 26 -140 12 -76 -109 22 -41 40 -77 40 -80 0 -2
-26 -2 -59 1 -219 20 -169 -136 84 -257 163 -79 327 -107 563 -97 78 3 147 1
170 -5 54 -15 122 -49 122 -61 0 -7 -93 -8 -302 -4 -407 9 -572 21 -650 48
-93 31 -234 108 -290 157 -51 47 -58 69 -33 112 21 36 19 86 -5 110 -32 32
-94 27 -132 -10 -38 -38 -33 -68 20 -122 33 -35 34 -38 14 -38 -33 0 -119 35
-158 65 -33 25 -34 29 -33 87 2 54 -1 64 -22 81 -34 28 -105 18 -136 -18 -47
-55 -19 -113 67 -135 25 -6 74 -29 110 -50 72 -43 188 -90 223 -90 12 0 55
-25 96 -55 40 -31 94 -67 120 -81 l46 -24 -45 6 c-247 33 -605 150 -670 219
-24 25 -25 32 -26 158 0 146 -9 180 -80 320 -77 153 -321 407 -390 407 -34 0
-54 -26 -54 -71 0 -45 -21 -61 -48 -36 -22 20 -102 56 -124 57 -102 1 -27
-287 106 -407 66 -59 169 -137 327 -246 69 -48 137 -99 150 -114 l24 -26 -30
7 c-16 4 -73 31 -125 61 -99 55 -175 89 -294 132 -161 57 -306 162 -387 279
-48 70 -47 85 5 137 51 50 53 55 30 103 -35 73 -156 105 -182 49 -23 -51 -14
-96 33 -169 25 -38 45 -75 45 -81 0 -7 23 -47 51 -90 27 -42 49 -79 47 -81 -2
-1 -55 31 -118 73 -158 105 -338 285 -443 443 -42 63 -74 116 -73 118 2 2 39
-20 81 -47 43 -28 83 -51 90 -51 6 0 43 -20 81 -45 73 -47 118 -56 169 -33 57
26 24 147 -50 183 -45 20 -61 15 -109 -36 -45 -47 -62 -46 -130 0 -117 81
-222 226 -279 387 -43 119 -77 195 -132 294 -30 52 -57 109 -61 125 l-7 30 26
-23 c13 -13 80 -103 148 -199 162 -231 238 -317 314 -359 156 -87 306 -99 305
-26 -1 22 -37 102 -57 124 -25 27 -9 48 36 48 45 0 71 20 71 54 0 69 -254 313
-407 390 -140 71 -174 80 -320 80 -126 1 -132 2 -158 26 -64 60 -152 310 -204
583 -26 135 -26 143 4 86 13 -26 49 -80 80 -120 30 -41 55 -84 55 -96 0 -35
47 -151 90 -223 21 -36 44 -85 50 -110 22 -86 80 -114 135 -67 37 31 46 102
17 136 -17 22 -27 24 -80 23 -59 -2 -62 0 -87 33 -30 38 -65 124 -65 157 0 20
3 19 37 -14 55 -53 85 -58 123 -20 24 24 30 39 30 71 0 72 -62 103 -134 66
-15 -8 -36 -15 -46 -15 -55 0 -206 256 -234 395 -26 127 -49 895 -27 895 11 0
45 -71 59 -122 6 -21 8 -96 5 -180 -9 -236 18 -390 97 -553 122 -253 277 -303
257 -84 -3 33 -3 59 -1 59 3 0 39 -18 80 -40 121 -64 135 -53 109 76 -20 96
-48 171 -108 291 -102 203 -290 436 -373 463 -26 9 -40 26 -76 93 l-43 82 0
220 c1 213 13 335 35 335 5 0 14 -19 20 -42 6 -24 33 -105 60 -181 28 -75 50
-154 50 -175 0 -32 64 -287 92 -363 8 -24 44 -49 68 -49 5 0 22 12 39 26 25
21 31 33 31 65 0 50 -35 89 -80 89 -16 0 -38 8 -48 18 -19 19 -68 179 -59 189
3 2 38 -26 79 -64 95 -91 115 -103 160 -103 32 0 40 4 48 26 19 48 12 90 -19
123 -33 36 -56 38 -91 11 -14 -11 -35 -20 -47 -20 -56 0 -187 214 -233 380
-32 119 -28 179 25 321 109 291 250 619 266 619 14 0 10 -130 -5 -190 -8 -30
-30 -96 -50 -145 -92 -238 -106 -555 -34 -755 25 -67 63 -120 87 -120 44 0
115 113 127 205 l7 46 26 -24 c77 -72 117 -52 142 72 14 75 7 228 -16 316 -14
57 -31 93 -157 336 -105 203 -105 335 0 538 126 243 143 279 157 336 23 88 30
241 16 316 -25 124 -65 144 -142 72 l-26 -24 -7 46 c-12 92 -83 205 -127 205
-24 0 -62 -53 -87 -120 -72 -200 -58 -517 34 -755 20 -49 42 -115 50 -145 15
-60 19 -190 5 -190 -16 0 -157 328 -266 619 -53 142 -57 202 -25 321 46 166
177 380 233 380 12 0 33 -9 47 -20 35 -27 58 -25 91 11 31 33 38 75 19 123 -8
22 -16 26 -48 26 -45 0 -65 -12 -160 -103 -41 -38 -76 -66 -79 -64 -9 10 40
170 59 189 10 10 32 18 48 18 45 0 80 39 80 87 -1 42 -13 63 -48 82 -32 17
-77 -2 -90 -37 -28 -77 -92 -332 -92 -364 0 -21 -22 -99 -50 -173 -27 -74 -50
-138 -50 -143 0 -21 -22 -82 -30 -82 -22 0 -34 123 -35 335 l0 220 43 82 c36
67 50 84 76 93 83 27 271 260 373 463 60 120 88 195 108 291 26 129 12 140
-109 76 -41 -22 -77 -40 -80 -40 -2 0 -2 26 1 59 20 219 -135 169 -257 -84
-79 -163 -106 -317 -97 -553 3 -84 1 -159 -5 -180 -14 -51 -48 -122 -59 -122
-22 0 1 768 27 895 28 138 179 395 233 395 10 0 33 -7 50 -16 39 -19 100 -13
118 13 7 9 13 34 13 56 0 30 -7 46 -30 69 -38 38 -68 33 -122 -20 -35 -33 -38
-34 -38 -14 0 33 35 119 65 157 25 33 28 35 87 33 53 -1 63 1 80 23 29 34 20
105 -17 136 -55 47 -113 19 -135 -67 -6 -25 -29 -74 -50 -110 -43 -72 -90
-188 -90 -223 0 -12 -25 -55 -55 -96 -31 -40 -67 -94 -80 -120 -30 -57 -30
-49 -4 86 52 273 140 523 204 583 26 24 32 25 158 26 146 0 180 9 320 80 153
77 407 321 407 390 0 34 -26 54 -71 54 -45 0 -61 21 -36 48 20 22 56 102 57
124 1 73 -149 61 -305 -26 -76 -42 -152 -128 -314 -359 -125 -178 -156 -216
-168 -204 -6 7 5 29 99 208 25 48 62 133 83 190 20 57 54 136 74 174 56 109
211 262 283 280 20 5 32 -1 64 -34 48 -51 64 -56 109 -36 74 36 107 157 50
183 -51 23 -96 14 -169 -33 -38 -25 -75 -45 -81 -45 -7 0 -47 -22 -89 -50 -42
-27 -79 -50 -81 -50 -3 0 10 24 27 53 128 211 329 414 540 545 38 23 68 40 68
37 0 -2 -22 -39 -50 -81 -27 -42 -50 -82 -50 -89 0 -6 -20 -43 -45 -81 -47
-73 -56 -118 -33 -169 10 -21 18 -25 56 -25 56 0 104 29 126 74 23 48 21 53
-30 103 -52 52 -53 67 -5 137 81 117 226 222 387 279 119 43 195 77 294 132
52 30 109 57 125 61 l30 7 -24 -26 c-13 -15 -81 -66 -150 -114 -158 -109 -261
-187 -327 -246 -133 -120 -208 -408 -106 -407 22 1 102 37 124 57 27 25 48 9
48 -36 0 -45 20 -71 54 -71 69 0 313 254 390 407 71 140 80 174 80 320 1 126
2 132 26 158 60 64 310 152 583 204 135 26 143 26 86 -4 -26 -13 -80 -49 -120
-80 -41 -30 -84 -55 -96 -55 -35 0 -151 -47 -223 -90 -36 -21 -85 -44 -110
-50 -86 -22 -114 -80 -67 -135 31 -36 102 -46 136 -18 21 17 24 27 22 81 -1
58 0 62 33 87 39 30 125 65 158 65 20 0 19 -3 -14 -37 -53 -55 -58 -85 -20
-123 38 -37 100 -42 132 -10 24 24 26 74 5 110 -25 43 -18 65 33 112 56 49
197 127 290 157 85 29 332 45 750 49 113 1 202 -2 202 -7z m978 -117 c42 -27
16 -26 -35 1 -39 21 -42 25 -18 20 17 -4 41 -13 53 -21z m1122 1 c-25 -13 -49
-24 -53 -25 -17 -1 7 23 37 36 52 22 64 15 16 -11z m-2560 4 c-46 -11 -187
-23 -179 -16 11 13 86 25 149 25 57 0 60 -1 30 -9z m4120 -8 c20 -9 10 -10
-50 -6 -117 9 -165 25 -60 21 47 -2 96 -9 110 -15z m-3930 -25 c0 -2 -55 -31
-122 -63 -146 -71 -211 -110 -203 -123 10 -16 41 -11 68 11 27 21 219 119 272
139 27 10 28 10 15 -4 -26 -27 -231 -146 -348 -203 -76 -37 -110 -59 -104 -65
12 -12 175 59 304 132 49 28 92 50 98 50 26 0 2 -23 -88 -83 -175 -118 -349
-194 -471 -204 l-65 -6 24 34 c67 97 235 231 373 299 82 40 247 98 247 86z
m3665 -22 c106 -34 206 -83 299 -145 80 -53 196 -160 236 -218 l24 -34 -65 6
c-123 11 -294 85 -471 203 -89 60 -114 84 -89 84 6 0 58 -27 116 -59 141 -78
274 -136 287 -123 6 6 -30 29 -104 65 -174 85 -429 243 -334 207 49 -18 250
-121 275 -141 26 -21 56 -25 66 -9 8 13 -52 49 -198 121 -161 79 -165 83 -42
43z m-4125 7 c0 -5 -13 -14 -30 -20 -16 -5 -30 -6 -30 -1 0 7 23 18 58 29 1 1
2 -3 2 -8z m4560 -21 c0 -12 -53 4 -58 18 -3 9 4 9 27 1 17 -6 31 -15 31 -19z
m-6631 -1 c85 -15 230 -62 205 -66 -12 -2 -48 3 -80 11 -168 43 -503 56 -578
23 -22 -10 -46 -26 -53 -37 -16 -23 -33 -26 -33 -7 0 35 82 70 200 87 73 10
254 4 339 -11z m9051 -2 c67 -16 110 -36 124 -59 16 -27 -4 -36 -24 -10 -29
36 -85 53 -194 59 -109 6 -340 -16 -436 -42 -30 -8 -66 -14 -80 -14 -24 1 -23
1 7 15 52 22 185 54 269 64 96 11 259 4 334 -13z m-6920 3 c0 -5 -5 -10 -11
-10 -5 0 -7 5 -4 10 3 6 8 10 11 10 2 0 4 -4 4 -10z m4395 0 c3 -5 1 -10 -4
-10 -6 0 -11 5 -11 10 0 6 2 10 4 10 3 0 8 -4 11 -10z m-4265 -5 c0 -3 -30
-20 -67 -39 -38 -19 -104 -55 -148 -80 -82 -48 -187 -86 -234 -86 -15 0 -36 6
-47 14 -18 14 -18 15 -1 33 17 17 19 17 31 1 18 -25 28 -23 61 12 33 35 49 39
40 10 -3 -11 -3 -20 1 -20 4 0 55 25 113 57 152 81 251 120 251 98z m4333 -80
c81 -41 150 -75 153 -75 3 0 2 9 -1 20 -9 29 7 25 40 -10 33 -35 43 -37 61
-12 12 16 14 16 31 -1 17 -18 17 -19 -1 -33 -11 -8 -32 -14 -47 -14 -47 0
-152 38 -234 86 -44 25 -110 61 -147 80 -38 19 -68 37 -68 40 0 17 80 -13 213
-81z m-2603 54 c0 -6 -4 -7 -10 -4 -5 3 -10 11 -10 16 0 6 5 7 10 4 6 -3 10
-11 10 -16z m672 -1 c-7 -7 -12 -8 -12 -2 0 14 12 26 19 19 2 -3 -1 -11 -7
-17z m-2582 3 c0 -11 -59 -36 -66 -28 -3 3 7 12 23 21 33 18 43 19 43 7z
m4521 -7 c17 -8 28 -18 25 -21 -7 -8 -66 17 -66 28 0 12 6 11 41 -7z m-6859
-25 c-56 -10 -119 -28 -139 -39 -40 -21 -78 -26 -88 -11 -16 26 145 70 255 69
l75 0 -103 -19z m9261 5 c82 -19 130 -40 122 -54 -10 -16 -48 -11 -88 10 -20
11 -83 29 -139 39 l-103 19 68 1 c37 1 100 -6 140 -15z m-8988 -4 c-3 -5 -35
-10 -71 -10 -41 0 -63 4 -59 10 3 6 35 10 71 10 41 0 63 -4 59 -10z m8740 0
c4 -6 -18 -10 -59 -10 -36 0 -68 5 -71 10 -4 6 18 10 59 10 36 0 68 -4 71 -10z
m-6785 -25 c-7 -9 -15 -13 -17 -11 -7 7 7 26 19 26 6 0 6 -6 -2 -15z m4715 4
c11 -17 -1 -21 -15 -4 -8 9 -8 15 -2 15 6 0 14 -5 17 -11z m-6945 -19 c0 -10
-79 -34 -87 -27 -3 4 39 22 85 36 1 1 2 -3 2 -9z m9247 -27 c-8 -7 -87 17 -87
27 0 5 20 2 46 -7 25 -8 43 -17 41 -20z m-4802 17 c3 -5 1 -10 -4 -10 -6 0
-11 5 -11 10 0 6 2 10 4 10 3 0 8 -4 11 -10z m285 0 c0 -5 -5 -10 -11 -10 -5
0 -7 5 -4 10 3 6 8 10 11 10 2 0 4 -4 4 -10z m-4355 -18 c-57 -26 -30 -34 61
-18 73 12 94 13 83 2 -9 -10 -212 -45 -344 -61 -166 -20 -197 -26 -203 -43 -6
-18 66 -15 253 8 192 24 196 24 171 5 -24 -19 -154 -61 -231 -75 -95 -18 -385
-25 -429 -10 -37 12 -37 12 -19 33 10 11 54 37 98 58 151 70 347 117 500 118
l100 0 -40 -17z m2653 -10 c4 -24 -39 -57 -63 -48 -19 7 -29 31 -21 52 5 14 9
14 22 3 13 -11 17 -10 26 5 12 22 32 16 36 -12z m3141 11 c8 -14 12 -15 25 -4
13 11 17 11 22 -3 8 -21 -2 -45 -21 -52 -21 -8 -65 22 -65 45 0 33 23 42 39
14z m2860 -3 c179 -36 370 -109 414 -158 18 -20 18 -20 -19 -32 -44 -15 -334
-8 -429 10 -77 14 -207 56 -231 75 -25 19 -21 19 171 -5 187 -23 259 -26 253
-8 -6 17 -37 23 -203 43 -132 16 -335 51 -344 61 -11 11 10 10 83 -2 91 -16
118 -8 61 18 l-40 17 91 1 c53 0 134 -9 193 -20z m-5017 -8 c7 -7 -21 -9 -103
-5 -204 10 -447 -38 -457 -91 -3 -16 1 -18 25 -13 15 3 58 17 96 31 80 31 264
53 350 42 32 -4 56 -10 53 -13 -3 -3 -59 -7 -126 -9 -159 -5 -320 -38 -320
-66 0 -12 40 -9 85 7 46 16 65 18 65 7 0 -16 -78 -52 -113 -52 -67 0 -157 44
-157 76 0 32 141 75 305 94 102 11 282 7 297 -8z m1419 7 c179 -18 319 -59
319 -93 0 -32 -90 -76 -157 -76 -35 0 -113 36 -113 52 0 11 19 9 65 -7 45 -16
85 -19 85 -7 0 28 -161 61 -320 66 -67 2 -123 6 -126 9 -14 14 122 19 222 9
105 -11 178 -29 233 -59 38 -19 73 -17 69 4 -10 52 -255 100 -457 90 -62 -3
-110 -2 -105 3 21 20 143 24 285 9z m-3727 -35 c4 -10 14 -14 25 -11 10 2 25
1 32 -4 11 -8 9 -13 -10 -29 -26 -22 -43 -25 -72 -10 -21 12 -25 40 -7 58 16
16 25 15 32 -4z m5784 4 c18 -18 14 -46 -7 -58 -29 -15 -46 -12 -72 10 -19 16
-21 21 -10 29 7 5 22 6 32 4 11 -3 21 1 25 11 7 19 16 20 32 4z m-3342 -13
c10 -8 14 -15 7 -15 -19 0 -43 11 -43 21 0 13 14 11 36 -6z m904 6 c0 -10 -24
-21 -43 -21 -7 0 -3 7 7 15 22 17 36 19 36 6z m-3825 -50 c13 -61 -31 -216
-91 -320 -78 -133 -299 -381 -341 -381 -84 0 31 321 195 548 47 63 64 77 55
43 -7 -27 15 -36 37 -16 11 10 26 15 35 12 18 -8 20 -37 2 -37 -19 0 -49 -35
-91 -105 -42 -70 -45 -85 -13 -77 25 6 32 16 -59 -93 -28 -33 -59 -73 -69 -89
l-18 -30 29 23 c117 91 268 337 296 484 14 73 23 83 33 38z m169 14 c-19 -15
-19 -15 4 -34 12 -11 28 -22 35 -24 17 -7 -11 -27 -38 -27 -31 0 -47 15 -47
44 0 33 18 56 45 56 20 0 21 0 1 -15z m6406 0 c17 -20 16 -65 -1 -76 -19 -12
-51 -11 -69 2 -11 8 -12 12 -3 16 7 2 23 13 35 24 23 19 23 19 4 34 -20 15
-19 15 1 15 11 0 26 -7 33 -15z m168 -52 c28 -147 179 -393 296 -484 l29 -23
-18 30 c-10 16 -41 56 -69 89 -91 109 -84 99 -58 93 31 -8 28 7 -14 77 -42 70
-72 105 -91 105 -18 0 -16 29 2 37 9 3 24 -2 35 -12 22 -20 44 -11 37 16 -9
34 8 20 55 -43 164 -227 279 -548 195 -548 -42 0 -263 248 -341 381 -60 104
-104 259 -91 320 10 45 19 35 33 -38z m-4772 22 c10 -8 28 -15 38 -15 18 0 18
-1 1 -20 -24 -27 -71 -26 -85 1 -23 41 7 64 46 34z m2820 1 c18 -47 -55 -76
-91 -36 -17 19 -17 20 1 20 10 0 28 7 38 15 25 19 45 19 52 1z m-2216 -11 c-7
-9 -15 -13 -17 -11 -7 7 7 26 19 26 6 0 6 -6 -2 -15z m406 0 c-10 -8 -88 -30
-172 -50 -85 -21 -154 -42 -154 -47 0 -7 16 -9 43 -5 23 3 62 8 87 12 l45 5
-35 -16 c-19 -9 -86 -24 -148 -34 -62 -9 -115 -20 -119 -24 -3 -3 22 -6 57 -6
103 0 392 73 456 115 26 17 54 20 54 6 0 -15 -334 -178 -389 -190 -64 -14
-280 -15 -315 -1 -38 14 -32 43 19 88 109 96 307 160 500 161 80 0 88 -1 71
-14z m954 5 c139 -22 288 -84 365 -152 51 -45 57 -74 19 -88 -36 -14 -252 -12
-316 2 -57 13 -388 174 -388 189 0 14 28 11 54 -6 64 -42 353 -115 456 -115
35 0 60 3 57 6 -4 4 -57 15 -119 24 -62 10 -129 25 -148 34 l-35 16 45 -5 c25
-4 64 -9 88 -12 26 -4 42 -2 42 5 0 5 -69 26 -154 47 -84 20 -162 42 -172 50
-17 13 -10 14 61 15 44 0 109 -5 145 -10z m215 -1 c11 -17 -1 -21 -15 -4 -8 9
-8 15 -2 15 6 0 14 -5 17 -11z m-1683 -61 c-7 -7 -12 -8 -12 -2 0 14 12 26 19
19 2 -3 -1 -11 -7 -17z m1788 1 c0 -6 -4 -7 -10 -4 -5 3 -10 11 -10 16 0 6 5
7 10 4 6 -3 10 -11 10 -16z m-4500 -2 c0 -2 -12 -14 -27 -28 -24 -22 -24 -13
0 19 8 11 27 17 27 9z m7238 -25 c20 -30 11 -28 -19 4 -13 15 -18 25 -10 22 8
-2 21 -14 29 -26z m-7358 -77 c-7 -8 -17 -15 -23 -15 -5 0 -2 9 8 20 21 23 35
19 15 -5z m7465 -13 c-6 -7 -35 18 -35 31 0 5 9 2 20 -8 11 -10 18 -20 15 -23z
m-7229 -29 c-14 -29 -46 -62 -46 -49 0 4 12 25 26 47 29 46 44 47 20 2z m6996
-16 c17 -34 18 -39 4 -28 -16 14 -46 63 -46 76 0 16 22 -10 42 -48z m-8505
-212 c-6 -185 -15 -251 -53 -366 -25 -78 -53 -129 -54 -99 0 9 9 87 20 175 23
187 26 259 8 253 -17 -6 -23 -37 -43 -203 -16 -132 -51 -335 -61 -344 -11 -11
-10 10 2 83 16 91 8 118 -18 61 l-17 -40 -1 91 c0 191 93 514 174 602 l21 24
14 -34 c10 -25 12 -72 8 -203z m1277 223 c-33 -56 -204 -222 -204 -199 0 13
189 211 202 211 5 0 6 -6 2 -12z m7540 -88 c53 -55 96 -105 96 -111 0 -16 -71
46 -136 119 -67 75 -79 92 -66 92 5 0 53 -45 106 -100z m1258 7 c70 -140 128
-380 128 -531 l-1 -91 -17 40 c-26 57 -34 30 -18 -61 12 -73 13 -94 2 -83 -10
9 -45 212 -61 344 -20 166 -26 197 -43 203 -18 6 -15 -66 8 -253 24 -192 24
-196 5 -171 -19 24 -61 154 -75 231 -18 95 -25 385 -10 429 12 37 12 37 32 19
11 -10 33 -44 50 -76z m-10312 64 c0 -6 -9 -16 -20 -24 -31 -22 -50 -79 -56
-174 -7 -97 9 -300 32 -408 9 -38 17 -88 20 -110 l4 -40 -16 35 c-24 53 -62
234 -69 335 -10 144 20 330 63 378 16 18 42 23 42 8z m10502 -8 c43 -48 73
-234 63 -378 -7 -101 -45 -282 -69 -335 l-16 -35 4 40 c3 22 11 72 20 110 23
108 39 311 32 408 -6 95 -25 152 -56 174 -11 8 -20 18 -20 24 0 15 26 10 42
-8z m-9160 -80 c-32 -43 -67 -91 -78 -107 -10 -16 -20 -24 -22 -17 -6 18 143
214 156 205 2 -1 -23 -38 -56 -81z m7835 -50 c25 -35 43 -68 41 -74 -2 -7 -12
1 -22 17 -11 16 -46 65 -79 109 -50 66 -54 74 -22 45 20 -19 57 -63 82 -97z
m-9147 66 c0 -11 -10 -41 -21 -67 -12 -26 -30 -89 -39 -142 l-18 -95 -1 68
c-2 108 44 278 69 262 6 -4 10 -15 10 -26z m10434 4 c23 -46 46 -168 45 -240
l-1 -68 -18 95 c-9 53 -27 116 -39 142 -21 48 -26 79 -14 91 10 10 11 9 27
-20z m-9744 -62 c0 -6 -29 -31 -64 -56 -36 -25 -68 -54 -71 -63 -3 -9 -22 -35
-41 -57 l-36 -40 8 50 c4 28 10 70 13 95 l6 45 57 7 c45 6 97 17 126 27 1 1 2
-3 2 -8z m9168 -21 c18 0 34 -6 36 -12 9 -31 27 -170 23 -174 -2 -3 -19 16
-38 42 -43 58 -65 80 -123 123 -25 18 -46 37 -46 41 0 4 26 1 58 -6 31 -8 72
-14 90 -14z m-8478 -15 c-7 -9 -15 -13 -18 -10 -3 2 1 11 8 20 7 9 15 13 18
10 3 -2 -1 -11 -8 -20z m7660 -7 c0 -6 -7 -5 -15 2 -8 7 -15 17 -15 22 0 6 7
5 15 -2 8 -7 15 -17 15 -22z m-9040 -57 c-6 -23 -15 -41 -20 -41 -5 0 -2 20 7
46 19 55 29 52 13 -5z m10413 4 c9 -25 12 -45 7 -45 -8 0 -30 61 -30 83 0 18
9 3 23 -38z m-9093 -33 c0 -17 -60 -101 -82 -116 -13 -9 -35 -17 -48 -18 -21
-3 -26 2 -28 25 -4 34 21 46 47 23 10 -9 20 -16 24 -16 3 0 20 25 37 55 28 49
50 70 50 47z m7810 -47 c17 -30 34 -55 37 -55 4 0 14 7 24 16 26 23 51 11 47
-23 -2 -23 -7 -28 -28 -25 -37 4 -68 29 -101 80 -31 48 -35 62 -20 62 5 0 24
-25 41 -55z m-7900 15 c0 -5 -4 -10 -10 -10 -5 0 -10 5 -10 10 0 6 5 10 10 10
6 0 10 -4 10 -10z m7960 0 c0 -5 -4 -10 -10 -10 -5 0 -10 5 -10 10 0 6 5 10
10 10 6 0 10 -4 10 -10z m-8249 -10 c28 -16 23 -45 -12 -75 -43 -36 -93 -32
-97 8 -4 30 0 32 28 15 24 -15 75 0 75 22 0 11 -10 14 -40 12 -37 -2 -39 -1
-21 13 23 18 40 19 67 5z m8585 -5 c18 -14 16 -15 -21 -13 -30 2 -40 -1 -40
-12 0 -22 51 -37 75 -22 28 17 32 15 28 -15 -2 -23 -9 -29 -34 -31 -36 -4 -94
38 -94 68 0 36 52 51 86 25z m-8181 -5 c-3 -5 -11 -10 -16 -10 -6 0 -7 5 -4
10 3 6 11 10 16 10 6 0 7 -4 4 -10z m7730 0 c3 -5 2 -10 -4 -10 -5 0 -13 5
-16 10 -3 6 -2 10 4 10 5 0 13 -4 16 -10z m-9134 -233 c-8 -8 -11 9 -11 54 0
85 14 99 18 18 2 -34 -2 -67 -7 -72z m10529 57 c0 -41 -4 -63 -10 -59 -5 3
-10 35 -10 71 0 41 4 63 10 59 6 -3 10 -35 10 -71z m-9722 -30 c2 -22 -5 -40
-23 -63 -30 -35 -59 -40 -75 -12 -14 27 -13 44 5 67 14 18 15 16 13 -21 -2
-30 1 -40 12 -40 22 0 37 51 22 75 -17 28 -15 32 16 28 22 -2 28 -9 30 -34z
m8962 27 c0 -6 -4 -13 -10 -16 -15 -9 -12 -61 5 -75 23 -19 36 -2 30 38 -6 35
-5 36 9 18 19 -23 20 -40 6 -67 -15 -28 -45 -23 -74 12 -24 29 -34 77 -19 92
10 10 53 8 53 -2z m-8968 -351 c-4 -37 -29 -68 -80 -101 -49 -31 -62 -35 -62
-19 0 5 25 24 55 41 30 17 55 34 55 37 0 3 -7 13 -16 23 -23 26 -11 51 23 47
23 -2 28 -7 25 -28z m8975 15 c3 -9 -2 -24 -11 -34 -9 -10 -16 -20 -16 -23 0
-3 25 -20 55 -37 30 -17 55 -36 55 -41 0 -17 -16 -11 -66 23 -49 32 -92 96
-79 117 10 16 55 12 62 -5z m-9167 -53 c-13 -9 -63 -46 -110 -81 -57 -43 -75
-53 -55 -31 40 44 156 130 175 129 10 0 6 -6 -10 -17z m100 8 c0 -5 -4 -10
-10 -10 -5 0 -10 5 -10 10 0 6 5 10 10 10 6 0 10 -4 10 -10z m9120 0 c0 -5 -4
-10 -10 -10 -5 0 -10 5 -10 10 0 6 5 10 10 10 6 0 10 -4 10 -10z m144 -34 c33
-24 77 -61 96 -81 28 -30 17 -24 -50 26 -47 35 -97 72 -110 81 -14 10 -19 17
-11 17 7 1 41 -19 75 -43z m-10169 -31 c34 -33 33 -65 0 -65 -32 0 -85 26 -85
42 0 17 31 48 47 48 8 0 25 -11 38 -25z m10977 8 c10 -9 18 -22 18 -29 0 -17
-52 -44 -85 -44 -33 0 -34 32 0 65 28 29 42 31 67 8z m-10212 -42 c-42 -52
-181 -174 -189 -166 -7 8 194 205 210 205 5 0 -4 -18 -21 -39z m9472 -60 c57
-55 100 -102 97 -106 -8 -8 -147 114 -189 166 -55 69 -13 42 92 -60z m-9320
37 c-7 -7 -12 -8 -12 -2 0 14 12 26 19 19 2 -3 -1 -11 -7 -17z m9088 1 c0 -6
-4 -7 -10 -4 -5 3 -10 11 -10 16 0 6 5 7 10 4 6 -3 10 -11 10 -16z m-9230 -34
c-7 -8 -17 -15 -22 -15 -6 0 -5 7 2 15 7 8 17 15 22 15 6 0 5 -7 -2 -15z
m9380 0 c7 -8 8 -15 2 -15 -5 0 -15 7 -22 15 -7 8 -8 15 -2 15 5 0 15 -7 22
-15z m-9115 -15 l26 -10 -18 -31 c-40 -70 -264 -260 -383 -327 -108 -60 -243
-98 -307 -86 -38 7 -45 24 -9 24 36 0 153 38 221 73 109 55 255 164 306 231
l23 29 -30 -18 c-16 -10 -56 -41 -89 -69 -109 -91 -99 -84 -93 -58 8 31 -7 28
-77 -14 -70 -42 -105 -72 -105 -91 0 -18 -29 -16 -37 2 -3 9 2 24 12 35 20 22
11 44 -16 37 -89 -24 164 145 316 211 74 31 154 58 195 65 14 2 28 5 32 6 4 0
19 -3 33 -9z m8970 -17 c122 -38 275 -116 393 -201 63 -47 77 -64 43 -55 -27
7 -36 -15 -16 -37 10 -11 15 -26 12 -35 -8 -19 -37 -20 -37 -2 0 19 -28 43
-103 89 -72 44 -87 47 -79 16 6 -26 16 -33 -93 58 -33 28 -73 59 -89 69 l-30
18 23 -29 c51 -67 197 -176 306 -231 68 -35 185 -73 221 -73 36 0 29 -17 -9
-24 -64 -12 -199 26 -307 86 -119 67 -343 257 -383 327 -18 31 -18 31 5 40 26
11 72 6 143 -16z m-9465 -68 c-7 -8 -17 -15 -23 -15 -5 0 -2 9 8 20 21 23 35
19 15 -5z m9845 -13 c-6 -7 -35 18 -35 31 0 5 9 2 20 -8 11 -10 18 -20 15 -23z
m-10505 -71 c13 -24 13 -111 1 -111 -5 0 -11 10 -13 22 -5 32 -26 33 -39 1
-10 -27 -11 -27 -25 -9 -20 28 -17 66 8 93 26 28 54 30 68 4z m11207 -3 c26
-24 30 -65 9 -94 -14 -18 -15 -18 -25 9 -13 32 -34 31 -39 -1 -6 -40 -22 -23
-22 24 0 81 31 106 77 62z m-10627 -13 c-13 -14 -26 -22 -29 -19 -3 3 5 14 18
25 33 27 39 24 11 -6z m10005 -6 c14 -22 -3 -18 -26 7 -23 25 -23 26 -2 15 12
-6 25 -16 28 -22z m-9846 -105 c-15 -19 -69 -47 -76 -40 -5 5 66 54 81 55 5 1
3 -6 -5 -15z m9702 -10 c46 -29 47 -44 2 -20 -29 14 -62 46 -49 46 4 0 25 -12
47 -26z m-10711 -126 c59 -63 122 -219 139 -342 12 -84 13 -372 2 -421 -8 -35
-5 -51 -51 241 -33 208 -58 321 -71 329 -17 11 -9 -95 20 -273 35 -212 45
-289 37 -281 -9 9 -46 203 -46 244 0 18 -4 36 -9 39 -14 9 -20 -42 -14 -121 9
-114 -17 -90 -58 52 -16 59 -23 357 -10 454 15 111 22 121 61 79z m11733 -14
c4 -16 11 -108 14 -204 4 -136 2 -195 -11 -267 -29 -166 -74 -237 -63 -100 6
79 0 130 -14 121 -5 -3 -9 -21 -9 -39 0 -40 -37 -235 -46 -244 -9 -9 4 90 37
286 29 172 37 279 20 268 -13 -8 -38 -121 -71 -329 -46 -292 -43 -276 -51
-241 -11 49 -10 337 2 421 17 124 80 279 139 342 27 28 41 25 53 -14z m-11926
-65 c31 -18 58 -42 64 -56 12 -31 12 -120 0 -127 -10 -7 -21 27 -21 66 0 33
-9 58 -21 58 -24 0 -3 -117 70 -382 16 -60 26 -108 22 -108 -11 0 -50 86 -81
176 -27 78 -39 141 -59 292 -10 80 -17 94 -32 72 -15 -23 -4 -184 20 -275 40
-156 95 -269 193 -398 33 -43 58 -80 55 -83 -7 -7 -102 101 -148 168 -50 72
-74 129 -104 241 -30 109 -60 325 -51 360 8 35 26 34 93 -4z m12158 10 c16
-51 -37 -355 -83 -473 -16 -39 -46 -98 -69 -131 -48 -70 -143 -178 -150 -171
-3 3 22 40 55 83 98 129 153 242 193 398 24 91 35 252 20 275 -15 22 -22 8
-32 -72 -20 -151 -32 -214 -59 -292 -31 -90 -70 -176 -81 -176 -4 0 6 48 22
108 73 265 94 382 70 382 -12 0 -21 -25 -21 -58 0 -39 -11 -73 -21 -66 -12 7
-12 96 0 127 10 25 103 86 133 87 9 0 20 -10 23 -21z m-11159 -104 c11 -46
-17 -88 -31 -46 -3 11 -13 25 -21 32 -14 11 -19 10 -31 -6 -14 -19 -14 -19
-11 5 6 48 83 60 94 15z m10152 12 c6 -5 12 -19 12 -30 0 -20 0 -20 -14 -2
-12 16 -16 17 -30 6 -8 -7 -18 -21 -21 -32 -14 -43 -42 0 -31 46 8 33 49 39
84 12z m-10216 -323 c10 -21 9 -31 -3 -52 -19 -35 -45 -36 -41 -2 1 14 -4 30
-14 37 -14 10 -15 15 -4 28 19 23 49 18 62 -11z m10258 11 c11 -13 10 -18 -4
-28 -10 -7 -15 -23 -14 -37 4 -34 -22 -33 -41 2 -29 50 24 106 59 63z m-10276
-368 c14 -37 -9 -125 -53 -210 -97 -186 -145 -270 -149 -258 -7 20 25 95 94
227 35 67 64 125 64 129 0 3 -9 3 -20 0 -29 -9 -25 7 10 40 35 33 37 43 13 60
-15 11 -15 15 -4 29 18 22 34 16 45 -17z m10277 17 c11 -14 11 -18 -4 -29 -24
-17 -22 -27 13 -60 35 -33 39 -49 10 -40 -11 3 -20 3 -20 0 0 -4 29 -62 64
-129 69 -132 101 -207 94 -227 -4 -12 -62 89 -150 261 -47 92 -67 177 -50 214
13 30 24 32 43 10z m-10116 -257 c-31 -127 -101 -269 -208 -424 -48 -68 -67
-87 -67 -63 0 6 22 49 50 98 75 131 144 292 132 304 -7 7 -28 -26 -65 -103
-84 -174 -244 -432 -207 -335 19 52 120 247 140 273 21 27 26 58 10 68 -13 8
-50 -54 -123 -202 -33 -68 -62 -122 -63 -120 -5 5 41 143 66 201 57 135 182
304 284 387 l61 49 3 -32 c2 -18 -4 -64 -13 -101z m10027 21 c77 -78 153 -189
202 -291 34 -70 89 -227 82 -234 -1 -2 -30 52 -63 120 -73 148 -110 210 -123
202 -16 -10 -12 -40 9 -66 20 -25 123 -226 141 -275 37 -97 -123 162 -207 335
-37 77 -58 110 -65 103 -12 -12 61 -182 134 -308 26 -46 48 -89 48 -94 0 -26
-23 -2 -84 88 -118 177 -192 348 -203 471 l-6 65 34 -24 c19 -13 64 -54 101
-92z m-10302 37 c-7 -9 -15 -13 -17 -11 -7 7 7 26 19 26 6 0 6 -6 -2 -15z
m10475 4 c11 -17 -1 -21 -15 -4 -8 9 -8 15 -2 15 6 0 14 -5 17 -11z m-11201
-38 c3 -4 -3 -16 -14 -26 -10 -9 -16 -23 -13 -31 3 -8 -1 -14 -11 -14 -17 0
-32 41 -22 65 6 16 51 21 60 6z m11972 -6 c10 -24 -5 -65 -22 -65 -10 0 -14 6
-11 14 3 8 -3 22 -13 31 -11 10 -17 22 -14 26 9 15 54 10 60 -6z m-11335 -32
c-4 -15 -12 -28 -19 -31 -9 -3 -9 4 -1 27 13 38 30 41 20 4z m49 -13 c-7 -16
-16 -30 -21 -30 -12 0 -11 6 7 41 20 39 31 30 14 -11z m10555 10 c17 -33 18
-40 7 -40 -9 0 -32 44 -32 60 0 18 9 10 25 -20z m54 -1 c8 -23 8 -30 -1 -27
-14 5 -30 58 -18 58 4 0 13 -14 19 -31z m-10649 -79 c0 -5 -5 -10 -11 -10 -5
0 -7 5 -4 10 3 6 8 10 11 10 2 0 4 -4 4 -10z m10635 0 c3 -5 1 -10 -4 -10 -6
0 -11 5 -11 10 0 6 2 10 4 10 3 0 8 -4 11 -10z m-10864 -73 c-13 -13 -15 15
-3 53 7 24 7 23 10 -9 2 -18 -1 -38 -7 -44z m11088 15 c1 -13 -3 -20 -9 -17
-5 3 -10 23 -9 43 0 30 2 33 9 17 5 -11 9 -30 9 -43z m-10931 -111 c-13 -86
-13 -86 -16 -33 -2 30 3 79 9 110 19 84 24 29 7 -77z m10778 -1 c4 -105 -12
-57 -21 60 -4 60 -3 70 6 50 6 -14 13 -63 15 -110z m-10936 0 c0 -43 -15 -61
-25 -30 -8 26 4 82 16 74 5 -3 9 -23 9 -44z m11106 -26 c-4 -14 -11 -22 -16
-19 -12 7 -13 78 -3 89 12 11 26 -42 19 -70z m-11468 -56 c27 -27 2 -98 -35
-98 -18 0 -17 16 2 24 8 3 15 10 15 16 0 13 -37 13 -45 0 -11 -18 -25 -10 -25
14 0 46 58 74 88 44z m11876 -4 c9 -8 16 -26 16 -40 0 -24 -14 -32 -25 -14 -8
13 -45 13 -45 0 0 -6 7 -13 15 -16 18 -7 20 -24 3 -24 -37 0 -64 70 -36 98 17
17 54 15 72 -4z m-11524 -229 c0 -37 -4 -65 -10 -65 -11 0 -13 51 -4 99 10 48
14 37 14 -34z m11119 -27 c0 -21 -3 -38 -9 -38 -6 0 -10 28 -9 68 1 52 3 60 9
37 4 -16 8 -47 9 -67z m-11661 40 c196 -170 372 -447 372 -587 0 -35 -1 -34
-41 39 -39 72 -186 298 -228 350 -11 14 -21 19 -21 12 0 -17 32 -79 86 -166
24 -39 44 -74 44 -77 0 -4 -9 -5 -20 -2 -28 7 -25 -5 13 -62 19 -28 53 -86 76
-130 l43 -80 -99 101 c-170 173 -252 346 -287 602 -4 23 -2 42 3 42 5 0 32
-19 59 -42z m12245 0 c-26 -243 -131 -456 -309 -628 l-77 -75 43 80 c24 44 58
102 77 130 38 57 41 69 13 62 -11 -3 -20 -2 -20 2 0 3 20 38 44 77 54 87 86
149 86 166 0 7 -10 2 -21 -12 -42 -52 -189 -278 -228 -350 -39 -73 -41 -74
-41 -39 0 113 98 293 261 476 57 65 154 153 169 153 4 0 6 -19 3 -42z m-11293
-103 c27 -32 -33 -96 -63 -66 -9 10 -8 15 7 26 15 11 16 17 8 28 -7 8 -9 17
-5 20 11 12 40 8 53 -8z m10333 8 c4 -3 2 -12 -5 -20 -8 -11 -7 -17 8 -28 14
-10 16 -17 8 -25 -30 -30 -91 32 -64 65 13 15 42 20 53 8z m-11419 -92 c71
-32 82 -43 61 -61 -8 -7 -15 -18 -15 -25 0 -7 31 -55 70 -106 38 -52 70 -98
70 -103 0 -22 -67 56 -132 154 -39 58 -74 107 -79 108 -15 6 -10 -37 7 -71 24
-46 67 -100 157 -196 81 -86 94 -114 32 -67 -53 41 -148 160 -200 251 -53 93
-73 121 -80 113 -11 -11 32 -105 83 -181 76 -112 159 -195 300 -302 127 -97
143 -120 43 -64 -197 111 -451 405 -451 525 0 62 38 69 134 25z m12574 17 c75
-75 -202 -434 -439 -567 -100 -56 -84 -33 43 64 140 106 218 184 297 299 52
76 98 173 86 184 -7 8 -27 -20 -80 -113 -52 -91 -147 -210 -200 -251 -63 -48
-49 -18 32 68 89 93 133 148 157 195 17 34 22 77 7 71 -5 -1 -40 -50 -79 -108
-65 -98 -132 -176 -132 -154 0 5 32 52 70 104 39 52 70 100 70 106 0 6 -7 17
-15 24 -21 18 -10 29 59 61 66 30 105 36 124 17z m-11898 -73 c0 -25 -4 -45
-10 -45 -11 0 -14 49 -4 74 10 26 14 18 14 -29z m11119 -17 c1 -16 -3 -28 -9
-28 -5 0 -10 21 -9 48 0 35 3 42 9 27 5 -11 9 -32 9 -47z m-10618 -38 c25 -14
25 -62 -1 -85 -18 -17 -20 -17 -20 -1 0 9 -7 28 -16 41 -27 42 -6 67 37 45z
m10145 -5 c4 -8 -1 -26 -10 -40 -9 -13 -16 -32 -16 -41 0 -16 -2 -16 -20 1
-25 22 -26 70 -2 84 25 15 42 13 48 -4z m-10931 -185 c3 -5 1 -10 -4 -10 -6 0
-11 5 -11 10 0 6 2 10 4 10 3 0 8 -4 11 -10z m11685 0 c0 -5 -5 -10 -11 -10
-5 0 -7 5 -4 10 3 6 8 10 11 10 2 0 4 -4 4 -10z m-11393 -72 c-2 -13 -4 -3 -4
22 0 25 2 35 4 23 2 -13 2 -33 0 -45z m11090 0 c-2 -13 -4 -3 -4 22 0 25 2 35
4 23 2 -13 2 -33 0 -45z m-10614 -16 c23 -25 47 -97 47 -139 0 -35 -36 -113
-52 -113 -11 0 -9 19 7 65 16 45 19 85 7 85 -27 0 -59 -155 -66 -319 -3 -68
-7 -126 -10 -128 -2 -3 -8 21 -11 53 -14 109 12 296 55 389 25 56 26 88 3 83
-52 -10 -100 -255 -90 -457 6 -126 -9 -143 -19 -21 -11 137 26 400 67 483 21
41 38 46 62 19z m10196 -19 c41 -83 78 -346 67 -483 -10 -122 -25 -105 -19 21
10 202 -38 447 -90 457 -23 5 -22 -27 3 -83 43 -93 69 -280 55 -389 -3 -32 -9
-56 -11 -53 -3 2 -7 60 -10 128 -7 164 -39 319 -66 319 -12 0 -9 -40 7 -85 16
-46 18 -65 7 -65 -16 0 -52 78 -52 113 0 67 44 157 76 157 8 0 22 -17 33 -37z
m-9969 -169 c14 -36 12 -252 -2 -316 -13 -57 -174 -388 -189 -388 -14 0 -11
28 6 54 42 64 115 353 115 456 0 35 -3 60 -6 57 -4 -4 -15 -57 -24 -119 -10
-62 -25 -129 -34 -148 l-16 -35 5 45 c4 25 9 64 12 88 3 25 2 42 -4 42 -6 0
-27 -69 -47 -154 -20 -84 -43 -162 -51 -172 -13 -17 -14 -10 -15 61 0 193 66
401 163 511 44 50 73 56 87 18z m9767 -18 c97 -110 163 -318 163 -511 -1 -71
-2 -78 -15 -61 -8 10 -31 88 -51 172 -20 85 -41 154 -47 154 -6 0 -7 -17 -4
-42 3 -24 8 -63 12 -88 l5 -45 -16 35 c-9 19 -24 86 -34 148 -9 62 -20 115
-24 119 -3 3 -6 -22 -6 -57 0 -103 73 -392 115 -456 17 -26 20 -54 6 -54 -15
0 -176 331 -189 388 -14 64 -16 280 -2 316 14 38 43 32 87 -18z m-9942 -56
c-3 -5 -11 -10 -16 -10 -6 0 -7 5 -4 10 3 6 11 10 16 10 6 0 7 -4 4 -10z
m10050 0 c3 -5 2 -10 -4 -10 -5 0 -13 5 -16 10 -3 6 -2 10 4 10 5 0 13 -4 16
-10z m-10105 -105 c-7 -9 -15 -13 -17 -11 -7 7 7 26 19 26 6 0 6 -6 -2 -15z
m10155 4 c11 -17 -1 -21 -15 -4 -8 9 -8 15 -2 15 6 0 14 -5 17 -11z m-10449
-266 c-7 -8 -34 39 -41 72 -5 24 -1 21 20 -18 15 -27 24 -51 21 -54z m10764
53 c-9 -30 -40 -70 -40 -52 0 11 44 95 48 91 2 -2 -1 -19 -8 -39z m-11091 -22
c49 -41 34 -89 -26 -82 -33 4 -58 47 -49 84 8 32 36 31 75 -2z m11456 3 c9
-35 -11 -76 -41 -83 -61 -15 -83 38 -34 80 39 32 68 34 75 3z m-10901 -103
c11 -28 6 -39 -9 -20 -8 11 -15 23 -15 28 0 14 18 9 24 -8z m10296 8 c0 -5 -7
-17 -15 -28 -15 -19 -20 -8 -9 20 6 17 24 22 24 8z m-10445 -122 c3 -5 2 -10
-4 -10 -5 0 -13 5 -16 10 -3 6 -2 10 4 10 5 0 13 -4 16 -10z m10590 0 c-3 -5
-11 -10 -16 -10 -6 0 -7 5 -4 10 3 6 11 10 16 10 6 0 7 -4 4 -10z m-11082 -24
c24 -18 22 -23 -14 -30 -22 -4 -30 -11 -27 -23 3 -14 12 -17 42 -16 31 2 37
-1 34 -15 -8 -44 -128 -7 -128 40 0 47 54 73 93 44z m11629 -3 c29 -26 23 -60
-14 -83 -39 -24 -91 -23 -96 2 -3 14 3 17 34 15 30 -1 39 2 42 16 3 12 -5 19
-27 23 -36 7 -38 12 -13 30 23 18 52 17 74 -3z m-11052 -173 c0 -5 -2 -10 -4
-10 -3 0 -8 5 -11 10 -3 6 -1 10 4 10 6 0 11 -4 11 -10z m10420 6 c0 -3 -4 -8
-10 -11 -5 -3 -10 -1 -10 4 0 6 5 11 10 11 6 0 10 -2 10 -4z m-10420 -286 c0
-5 -5 -10 -11 -10 -5 0 -7 5 -4 10 3 6 8 10 11 10 2 0 4 -4 4 -10z m10415 0
c3 -5 1 -10 -4 -10 -6 0 -11 5 -11 10 0 6 2 10 4 10 3 0 8 -4 11 -10z m-10957
-92 c3 -14 -3 -17 -34 -15 -29 1 -39 -2 -42 -15 -2 -11 6 -18 27 -23 36 -8 38
-13 14 -31 -38 -29 -93 -4 -93 43 0 48 119 86 128 41z m11580 2 c36 -22 42
-53 15 -82 -19 -21 -51 -23 -75 -4 -25 18 -23 23 13 31 21 5 29 12 27 23 -3
13 -13 16 -41 15 -25 -2 -37 2 -37 11 0 32 49 36 98 6z m-10776 -197 c46 -93
89 -192 96 -221 14 -64 16 -280 2 -316 -14 -38 -43 -32 -87 18 -97 110 -163
318 -163 511 1 71 2 78 15 61 8 -10 31 -88 51 -172 20 -85 41 -154 47 -154 6
0 7 17 4 43 -3 23 -8 62 -12 87 l-5 45 16 -35 c9 -19 24 -86 34 -148 9 -62 20
-115 24 -119 3 -3 6 22 6 57 0 103 -73 392 -115 456 -17 26 -20 54 -6 54 5 0
47 -75 93 -167z m9978 152 c0 -9 -7 -26 -15 -39 -42 -64 -115 -353 -115 -456
0 -35 3 -60 6 -57 4 4 15 57 24 119 10 62 25 129 34 148 l16 35 -5 -45 c-4
-25 -9 -64 -12 -87 -3 -26 -2 -43 4 -43 6 0 27 69 47 154 20 84 43 162 51 172
13 17 14 10 15 -61 0 -193 -66 -401 -163 -511 -44 -50 -73 -56 -87 -18 -14 36
-12 252 2 316 13 57 174 388 189 388 5 0 9 -7 9 -15z m-10325 -65 c-3 -5 -11
-10 -16 -10 -6 0 -7 5 -4 10 3 6 11 10 16 10 6 0 7 -4 4 -10z m10590 0 c3 -5
2 -10 -4 -10 -5 0 -13 5 -16 10 -3 6 -2 10 4 10 5 0 13 -4 16 -10z m-10435
-92 c0 -19 -18 -43 -25 -36 -4 3 -2 16 5 27 12 24 20 27 20 9z m10290 -30 c0
-14 -18 -9 -24 8 -11 28 -6 39 9 20 8 -11 15 -23 15 -28z m-10832 -20 c7 -7
12 -20 12 -29 0 -22 -55 -69 -80 -69 -32 0 -37 61 -8 98 13 15 60 16 76 0z
m11412 2 c36 -19 37 -100 0 -100 -25 0 -80 47 -80 69 0 36 41 52 80 31z
m-11125 -97 c-21 -39 -25 -42 -20 -18 7 33 34 80 41 72 3 -3 -6 -27 -21 -54z
m10781 11 c23 -54 15 -63 -11 -14 -27 50 -30 65 -14 54 6 -3 17 -21 25 -40z
m-10573 -106 c-10 -201 38 -446 90 -456 23 -5 22 27 -3 83 -43 93 -69 280 -55
389 3 32 9 56 11 53 2 -2 7 -60 10 -128 7 -164 39 -319 66 -319 12 0 9 40 -7
85 -16 46 -18 65 -7 65 16 0 52 -78 52 -113 0 -67 -44 -157 -76 -157 -19 0
-49 64 -67 145 -39 172 -47 465 -12 465 2 0 1 -51 -2 -112z m10373 22 c15
-185 -49 -520 -100 -520 -32 0 -76 90 -76 157 0 35 36 113 52 113 11 0 9 -19
-7 -65 -17 -45 -19 -85 -6 -85 10 0 26 37 40 95 14 55 30 225 25 255 -3 14 -1
43 4 65 l9 40 8 -59 c14 -109 -12 -296 -55 -391 -25 -56 -26 -88 -3 -83 52 10
100 255 90 457 -6 126 9 143 19 21z m-10260 -147 c-7 -7 -26 7 -26 19 0 6 6 6
15 -2 9 -7 13 -15 11 -17z m10149 8 c-3 -6 -11 -11 -17 -11 -6 0 -6 6 2 15 14
17 26 13 15 -4z m-10100 -101 c3 -5 2 -10 -4 -10 -5 0 -13 5 -16 10 -3 6 -2
10 4 10 5 0 13 -4 16 -10z m10050 0 c-3 -5 -11 -10 -16 -10 -6 0 -7 5 -4 10 3
6 11 10 16 10 6 0 7 -4 4 -10z m-10987 -165 c-141 -107 -224 -190 -300 -302
-51 -76 -94 -170 -83 -181 8 -8 30 23 71 100 42 78 153 219 206 261 66 53 52
22 -29 -64 -90 -96 -133 -150 -157 -196 -17 -34 -22 -77 -7 -71 5 2 40 50 79
108 65 98 132 176 132 154 0 -5 -32 -51 -70 -103 -39 -51 -70 -98 -70 -104 0
-6 7 -18 16 -28 14 -15 12 -18 -18 -37 -78 -48 -143 -63 -166 -40 -75 75 207
440 441 569 97 53 80 30 -45 -66z m11851 70 c185 -93 461 -411 461 -530 0 -71
-66 -72 -178 -3 -30 19 -32 22 -18 37 9 10 16 22 16 27 0 5 -31 52 -70 104
-38 52 -70 99 -70 104 0 22 67 -56 132 -154 39 -58 74 -106 79 -108 15 -6 10
37 -7 71 -24 47 -68 102 -157 195 -81 86 -96 119 -29 65 53 -42 164 -183 206
-261 41 -77 63 -108 71 -100 11 11 -32 105 -83 181 -76 112 -159 195 -300 302
-126 96 -140 115 -53 70z m-11710 -122 c-23 -43 -57 -100 -76 -128 -38 -57
-41 -69 -13 -62 11 3 20 2 20 -2 0 -3 -20 -38 -44 -77 -54 -87 -86 -149 -86
-166 0 -7 10 -2 21 12 42 52 189 278 228 350 40 73 41 74 41 39 0 -114 -105
-304 -268 -484 -61 -67 -149 -145 -163 -145 -5 0 -7 19 -3 43 34 251 116 425
283 599 51 54 96 98 98 98 3 0 -14 -35 -38 -77z m11776 -128 c46 -65 102 -170
133 -250 33 -85 69 -285 52 -285 -14 0 -108 84 -163 146 -165 184 -267 369
-267 483 0 35 1 34 41 -39 39 -72 186 -298 228 -350 11 -14 21 -19 21 -12 0
17 -32 79 -86 166 -24 39 -44 74 -44 77 0 4 9 5 20 2 28 -7 25 5 -13 62 -19
28 -53 86 -77 130 l-43 80 77 -75 c43 -41 97 -102 121 -135z m-11508 23 c-2
-13 -4 -3 -4 22 0 25 2 35 4 23 2 -13 2 -33 0 -45z m11090 0 c-2 -13 -4 -3 -4
22 0 25 2 35 4 23 2 -13 2 -33 0 -45z m-11377 -22 c0 -3 -4 -8 -10 -11 -5 -3
-10 -1 -10 4 0 6 5 11 10 11 6 0 10 -2 10 -4z m11680 -6 c0 -5 -2 -10 -4 -10
-3 0 -8 5 -11 10 -3 6 -1 10 4 10 6 0 11 -4 11 -10z m-10880 -152 c0 -34 -42
-60 -63 -39 -9 9 -8 18 6 42 9 17 17 38 17 46 0 14 3 14 20 -2 11 -10 20 -31
20 -47z m10120 -1 c18 -37 2 -56 -35 -39 -30 14 -34 56 -8 85 17 18 18 18 23
0 3 -10 12 -30 20 -46z m-10640 -94 c0 -35 -3 -44 -10 -33 -13 20 -13 80 0 80
6 0 10 -21 10 -47z m11119 20 c0 -16 -4 -37 -9 -48 -6 -15 -9 -8 -9 28 -1 26
4 47 9 47 6 0 10 -12 9 -27z m-10713 -108 c25 -39 -1 -77 -42 -61 -13 5 -14 9
-4 21 11 13 10 18 -5 29 -10 7 -15 18 -11 24 12 20 45 13 62 -13z m10350 13
c4 -6 -1 -17 -11 -24 -15 -11 -16 -16 -5 -29 10 -12 9 -16 -4 -21 -41 -16 -67
22 -42 61 17 26 50 33 62 13z m-10757 -155 c-1 -50 -3 -61 -9 -43 -12 36 -12
110 0 110 6 0 10 -29 9 -67z m11120 30 c-1 -21 -5 -51 -9 -68 -6 -23 -8 -15
-9 38 -1 39 3 67 9 67 6 0 9 -17 9 -37z m-10803 -198 c36 -60 91 -161 121
-224 37 -77 58 -110 65 -103 12 12 -57 173 -132 304 -28 49 -50 92 -50 98 0
26 23 2 84 -88 118 -176 191 -345 203 -471 l6 -65 -34 24 c-100 70 -235 240
-303 383 -34 70 -89 227 -82 234 1 2 30 -52 63 -120 73 -148 110 -210 123
-202 16 10 12 40 -9 66 -10 13 -44 74 -75 135 -103 206 -94 218 20 29z m10554
109 c-19 -48 -122 -248 -141 -273 -21 -26 -25 -56 -9 -66 13 -8 52 57 123 203
33 68 61 121 63 119 7 -7 -47 -162 -82 -234 -68 -143 -203 -313 -303 -383
l-34 -24 6 65 c11 123 85 294 203 471 61 90 84 114 84 88 0 -5 -22 -48 -48
-94 -74 -129 -146 -296 -133 -309 7 -7 22 15 50 76 58 127 210 387 226 387 3
0 0 -12 -5 -26z m-11228 -91 c20 -18 24 -63 6 -81 -30 -30 -88 -2 -88 44 0 24
14 32 25 14 8 -13 45 -13 45 0 0 6 -7 13 -15 16 -8 4 -15 10 -15 15 0 14 22
10 42 -8z m11845 -1 c-10 -10 -17 -22 -17 -25 0 -11 38 -8 45 3 11 18 25 10
25 -14 0 -46 -58 -74 -88 -44 -27 27 -2 98 36 98 13 0 13 -3 -1 -18z m-11312
-222 c4 -60 3 -70 -6 -50 -6 14 -13 63 -15 110 -4 105 12 57 21 -60z m10764
-18 c-19 -84 -24 -29 -7 77 13 86 13 86 16 33 2 -30 -3 -79 -9 -110z m-10929
78 c0 -21 -4 -41 -9 -44 -12 -8 -24 48 -16 74 10 31 25 13 25 -30z m11105 -16
c-3 -19 -10 -32 -16 -29 -10 7 -12 78 -2 89 13 13 25 -26 18 -60z m-10841 -81
c19 -38 55 -104 80 -148 72 -124 102 -239 73 -278 -11 -16 -14 -16 -32 -2 -19
14 -19 16 -2 29 24 18 22 28 -13 61 -35 33 -39 49 -10 40 11 -3 20 -4 20 -1 0
3 -34 71 -75 153 -68 133 -98 213 -81 213 3 0 21 -30 40 -67z m10581 -1 c-10
-26 -46 -102 -81 -168 -35 -67 -64 -125 -64 -129 0 -3 9 -3 20 0 29 9 25 -7
-10 -40 -35 -33 -37 -43 -12 -61 16 -13 16 -15 -3 -29 -18 -14 -21 -14 -32 2
-29 39 1 154 73 278 25 44 62 112 81 150 39 75 56 73 28 -3z m-10836 -40 c0
-30 -2 -33 -9 -17 -12 28 -12 67 0 60 6 -3 10 -23 9 -43z m11072 -12 c-9 -23
-10 -23 -10 11 -1 20 2 39 7 43 11 12 14 -27 3 -54z m-10851 -20 c0 -5 -2 -10
-4 -10 -3 0 -8 5 -11 10 -3 6 -1 10 4 10 6 0 11 -4 11 -10z m10640 6 c0 -3 -4
-8 -10 -11 -5 -3 -10 -1 -10 4 0 6 5 11 10 11 6 0 10 -2 10 -4z m-10600 -76
c17 -41 6 -50 -14 -11 -18 35 -19 41 -7 41 5 0 14 -14 21 -30z m10570 25 c0
-14 -32 -66 -37 -61 -8 7 17 66 28 66 5 0 9 -2 9 -5z m-11283 -19 c-3 -8 3
-22 13 -31 11 -10 17 -22 14 -26 -9 -15 -54 -10 -60 6 -10 24 5 65 22 65 10 0
14 -6 11 -14z m664 -19 c10 -37 -7 -34 -20 4 -8 23 -8 30 1 27 7 -3 15 -16 19
-31z m10658 3 c-11 -30 -33 -44 -24 -15 3 8 7 22 10 30 2 8 9 15 14 15 6 0 6
-11 0 -30z m677 5 c9 -36 -2 -55 -30 -55 -33 0 -40 14 -16 35 10 9 16 23 13
31 -3 8 1 14 11 14 8 0 18 -11 22 -25z m-11240 -92 c-7 -7 -26 7 -26 19 0 6 6
6 15 -2 9 -7 13 -15 11 -17z m10469 8 c-3 -6 -11 -11 -17 -11 -6 0 -6 6 2 15
14 17 26 13 15 -4z m-11123 -258 c-98 -129 -153 -242 -193 -398 -24 -91 -35
-252 -20 -275 15 -22 22 -8 32 72 20 151 32 214 59 292 31 90 70 176 81 176 4
0 -6 -48 -22 -107 -73 -266 -94 -383 -70 -383 12 0 21 25 21 58 0 39 11 73 21
66 12 -7 12 -96 0 -127 -10 -25 -105 -87 -135 -87 -26 0 -30 47 -12 176 30
213 72 346 145 452 46 67 141 175 148 168 3 -3 -22 -40 -55 -83z m11851 -88
c56 -81 92 -178 121 -326 42 -213 45 -299 9 -299 -29 0 -124 62 -134 87 -12
31 -12 120 0 127 10 7 21 -27 21 -66 0 -33 9 -58 21 -58 24 0 3 117 -70 383
-16 59 -26 107 -22 107 11 0 50 -86 81 -176 27 -78 39 -141 59 -292 10 -80 17
-94 32 -72 15 23 4 184 -20 275 -39 155 -95 269 -192 397 -33 42 -59 80 -59
85 1 14 110 -108 153 -172z m-11664 -97 c0 -86 -4 -192 -10 -235 -23 -166
-140 -396 -181 -355 -29 29 -36 450 -9 547 41 142 67 166 58 52 -6 -79 0 -130
14 -121 5 3 9 21 9 39 0 41 37 235 46 244 8 8 -2 -69 -37 -281 -29 -178 -37
-284 -20 -273 13 8 38 121 71 329 46 292 43 276 51 241 4 -16 7 -101 8 -187z
m11440 -44 c34 -216 58 -331 72 -339 17 -11 9 96 -20 268 -33 196 -46 295 -37
286 9 -9 46 -204 46 -244 0 -18 4 -36 9 -39 14 -9 20 42 14 121 -11 134 34 68
62 -93 24 -138 15 -478 -13 -506 -41 -41 -158 189 -181 355 -12 87 -15 349 -4
412 l7 40 7 -35 c4 -20 21 -121 38 -226z m-10849 4 c28 -50 -25 -105 -60 -63
-11 13 -10 18 5 29 12 8 16 19 12 30 -17 43 19 45 43 4z m10242 1 c-1 -13 5
-29 14 -36 14 -10 15 -15 4 -28 -37 -45 -89 20 -56 70 20 31 42 28 38 -6z
m-10177 -320 c10 -30 -2 -66 -24 -72 -29 -7 -66 15 -69 43 -3 24 -3 24 11 5
12 -16 17 -17 31 -6 8 7 18 21 21 32 8 25 22 24 30 -2z m10100 2 c3 -11 13
-25 21 -32 14 -11 19 -10 31 6 14 19 14 19 11 -5 -3 -28 -40 -50 -69 -43 -22
6 -33 36 -25 69 8 29 22 31 31 5z m-9981 -227 c86 -30 160 -71 255 -142 93
-70 230 -200 254 -241 l18 -31 -25 -10 c-77 -29 -343 80 -533 218 -64 47 -78
64 -44 55 27 -7 36 15 16 37 -10 11 -15 26 -12 35 8 18 37 20 37 2 0 -19 35
-49 105 -91 70 -42 85 -45 77 -13 -6 25 -16 32 93 -59 33 -28 73 -58 89 -68
l29 -18 -26 34 c-28 36 -120 113 -200 167 -76 52 -207 109 -280 123 -37 7 -67
16 -67 20 0 25 119 15 214 -18z m10024 30 c37 -10 25 -19 -45 -32 -73 -14
-204 -71 -280 -123 -80 -54 -172 -131 -200 -167 l-26 -34 29 18 c16 10 56 40
89 68 109 91 99 84 93 59 -8 -32 7 -29 79 15 75 46 103 70 103 89 0 18 29 17
37 -2 3 -9 -2 -24 -12 -35 -20 -22 -11 -44 16 -37 34 9 20 -8 -43 -55 -191
-138 -457 -247 -534 -218 l-25 10 18 31 c40 70 264 260 383 327 116 65 255
102 318 86z m-9979 -128 c27 -14 60 -46 47 -46 -9 0 -86 49 -86 55 0 8 9 6 39
-9z m9781 9 c0 -5 -77 -55 -85 -55 -13 0 9 23 39 41 31 19 46 23 46 14z
m-10530 -81 c12 -30 34 -27 38 4 6 40 22 23 22 -24 0 -81 -31 -106 -77 -62
-25 23 -29 57 -13 89 14 25 19 24 30 -7z m11202 4 c5 -32 26 -33 39 -1 10 27
11 27 25 9 20 -28 17 -66 -8 -93 -44 -47 -78 -20 -78 61 0 47 16 64 22 24z
m-10571 -75 l24 -27 -24 15 c-14 9 -27 21 -29 27 -6 19 3 14 29 -15z m10004 8
c-3 -6 -16 -16 -28 -22 -21 -11 -21 -10 2 15 23 25 40 29 26 7z m-9925 -106
c20 -24 6 -28 -15 -5 -10 11 -13 20 -8 20 6 0 16 -7 23 -15z m122 -59 c73 -65
135 -136 119 -136 -13 0 -211 189 -211 202 0 13 17 1 92 -66z m9570 -37 c-105
-102 -147 -129 -92 -60 42 52 181 174 189 166 3 -4 -40 -51 -97 -106z m143 91
c-10 -11 -20 -18 -23 -15 -7 6 18 35 31 35 5 0 2 -9 -8 -20z m-9605 -95 c7 -8
8 -15 2 -15 -5 0 -15 7 -22 15 -7 8 -8 15 -2 15 5 0 15 -7 22 -15z m9375 -4
c-3 -6 -11 -11 -17 -11 -6 0 -6 6 2 15 14 17 26 13 15 -4z m-9351 -137 c16
-10 24 -20 17 -22 -15 -5 -126 75 -171 123 -29 32 -21 28 45 -22 44 -33 93
-68 109 -79z m9465 100 c-44 -47 -156 -127 -170 -122 -5 2 23 27 63 55 40 29
87 63 103 77 43 36 45 32 4 -10z m-10239 -4 c0 -23 -42 -70 -61 -70 -17 0 -49
30 -49 46 0 18 48 43 83 44 21 0 27 -5 27 -20z m900 -1 c0 -6 -4 -7 -10 -4 -5
3 -10 11 -10 16 0 6 5 7 10 4 6 -3 10 -11 10 -16z m9072 -1 c-7 -7 -12 -8 -12
-2 0 14 12 26 19 19 2 -3 -1 -11 -7 -17z m968 7 c17 -9 30 -21 30 -27 0 -17
-31 -48 -47 -48 -21 0 -63 46 -63 70 0 25 37 27 80 5z m-10048 -44 c51 -33 76
-64 80 -101 3 -21 -2 -26 -25 -28 -34 -4 -46 21 -23 47 9 10 16 20 16 24 0 3
-25 20 -55 37 -30 17 -55 36 -55 41 0 15 14 11 62 -20z m9138 20 c0 -5 -25
-24 -55 -41 -30 -17 -55 -34 -55 -37 0 -4 7 -14 16 -24 23 -26 11 -51 -23 -47
-23 2 -28 7 -25 28 4 37 29 68 80 101 48 31 62 35 62 20z m-9150 -91 c0 -5 -4
-10 -10 -10 -5 0 -10 5 -10 10 0 6 5 10 10 10 6 0 10 -4 10 -10z m9120 0 c0
-5 -4 -10 -10 -10 -5 0 -10 5 -10 10 0 6 5 10 10 10 6 0 10 -4 10 -10z m-9732
-132 c19 -89 41 -227 56 -355 14 -123 19 -143 37 -143 14 0 11 81 -11 255 -24
192 -24 196 -5 171 19 -24 61 -154 75 -231 18 -95 25 -385 10 -429 -12 -37
-12 -37 -32 -19 -78 70 -178 414 -178 607 l1 91 17 -40 c10 -21 21 -35 25 -29
6 10 -7 116 -19 157 -3 9 -1 17 4 17 5 0 14 -24 20 -52z m10348 35 c-12 -41
-25 -147 -19 -157 4 -6 15 8 25 29 l17 40 1 -91 c0 -193 -100 -537 -178 -607
-20 -18 -20 -18 -32 19 -15 44 -8 334 10 429 14 77 56 207 75 231 19 25 19 21
-5 -171 -22 -174 -25 -255 -11 -255 18 0 23 20 37 143 25 215 61 407 76 407 5
0 7 -8 4 -17z m-10450 -119 c-26 -103 -40 -234 -41 -384 0 -159 10 -205 53
-245 27 -26 23 -47 -6 -29 -93 58 -103 432 -19 694 26 79 36 51 13 -36z
m10571 -79 c52 -228 26 -532 -49 -579 -27 -16 -36 4 -10 24 34 28 52 81 58
177 7 97 -9 300 -32 408 -9 39 -17 88 -20 110 l-4 40 16 -35 c9 -19 27 -84 41
-145z m-9782 4 c36 -43 32 -93 -7 -97 -31 -4 -33 0 -16 28 15 24 0 75 -22 75
-11 0 -14 -10 -12 -40 2 -37 1 -39 -13 -21 -18 23 -19 40 -5 67 16 28 45 23
75 -12z m9025 12 c14 -27 13 -44 -6 -67 -14 -18 -15 -17 -9 18 6 40 -7 57 -30
38 -17 -14 -20 -66 -5 -75 20 -12 9 -26 -17 -23 -40 4 -44 54 -8 97 30 35 59
40 75 12z m-9800 -117 c0 -41 -4 -63 -10 -59 -5 3 -10 35 -10 71 0 41 4 63 10
59 6 -3 10 -35 10 -71z m10511 -57 c-8 -8 -11 9 -11 54 0 85 14 99 18 18 2
-34 -2 -67 -7 -72z m-8922 -73 c176 -185 273 -348 301 -506 11 -57 6 -118 -9
-118 -3 0 -12 30 -19 67 -14 73 -71 204 -123 280 -54 80 -131 172 -167 200
l-34 26 18 -29 c10 -16 40 -56 68 -89 91 -109 84 -99 59 -93 -32 8 -29 -7 13
-77 42 -70 72 -105 91 -105 18 0 16 -29 -2 -37 -9 -3 -24 2 -35 12 -22 20 -44
11 -37 -16 9 -34 -8 -20 -55 44 -138 190 -247 456 -218 533 l10 25 31 -18 c17
-10 66 -55 108 -99z m7474 50 c-4 -108 -104 -331 -221 -491 -47 -64 -64 -78
-55 -44 7 27 -15 36 -37 16 -11 -10 -26 -15 -35 -12 -18 8 -20 37 -2 37 19 0
49 35 91 105 42 70 45 85 14 77 -26 -6 -33 -16 58 93 28 33 58 73 68 89 l18
29 -34 -26 c-36 -28 -113 -120 -167 -200 -52 -76 -109 -207 -123 -280 -14 -73
-23 -83 -33 -38 -13 61 31 216 91 320 66 112 230 306 308 363 48 35 62 26 59
-38z m-8075 -26 c27 -26 28 -54 3 -68 -27 -14 -44 -13 -67 5 -18 14 -16 15 21
13 30 -2 40 1 40 12 0 22 -51 37 -75 22 -27 -17 -30 -15 -30 13 0 49 57 50
108 3z m8632 -3 c0 -28 -3 -30 -30 -13 -24 15 -75 0 -75 -22 0 -11 10 -14 40
-12 37 2 39 1 21 -13 -23 -18 -40 -19 -67 -5 -25 14 -24 42 4 68 50 47 107 45
107 -3z m-8332 8 c22 -14 82 -98 82 -115 0 -23 -22 -2 -50 47 -17 30 -34 55
-37 55 -4 0 -14 -7 -24 -16 -10 -9 -25 -14 -34 -11 -15 6 -21 48 -8 60 8 9 40
0 71 -20z m8000 -6 c4 -34 -21 -46 -47 -23 -10 9 -20 16 -24 16 -3 0 -20 -25
-37 -55 -28 -50 -50 -70 -50 -46 0 23 69 108 100 123 43 22 54 19 58 -15z
m-9259 -229 c23 -50 27 -83 11 -93 -25 -16 -71 154 -69 262 l1 68 18 -95 c9
-53 27 -116 39 -142z m10485 32 c-18 -84 -40 -134 -54 -125 -16 10 -12 43 11
93 12 26 29 90 38 142 l16 95 3 -65 c2 -35 -4 -98 -14 -140z m-9913 85 c10
-16 44 -48 76 -70 69 -49 79 -68 29 -54 -19 5 -61 13 -93 17 l-58 7 -6 45 c-3
25 -9 68 -13 95 l-7 50 26 -30 c15 -16 35 -43 46 -60z m9359 -2 c-17 -106 -15
-103 -52 -103 -18 0 -59 -6 -90 -14 -32 -7 -58 -10 -58 -5 0 5 21 23 46 41 58
41 80 64 123 122 19 26 36 45 38 42 3 -2 -1 -40 -7 -83z m-8565 57 c3 -5 2
-10 -4 -10 -5 0 -13 5 -16 10 -3 6 -2 10 4 10 5 0 13 -4 16 -10z m7730 0 c-3
-5 -11 -10 -16 -10 -6 0 -7 5 -4 10 3 6 11 10 16 10 6 0 7 -4 4 -10z m-7845
-20 c0 -5 -4 -10 -10 -10 -5 0 -10 5 -10 10 0 6 5 10 10 10 6 0 10 -4 10 -10z
m7960 0 c0 -5 -4 -10 -10 -10 -5 0 -10 5 -10 10 0 6 5 10 10 10 6 0 10 -4 10
-10z m-9190 -61 c16 -57 6 -60 -13 -5 -9 26 -12 46 -7 46 5 0 14 -18 20 -41z
m10413 -5 c-8 -25 -17 -43 -20 -41 -7 8 17 87 27 87 5 0 2 -20 -7 -46z m-9105
-131 c34 -46 62 -85 62 -88 0 -10 -97 101 -128 148 -18 25 -32 52 -31 59 0 7
8 2 17 -12 9 -13 45 -61 80 -107z m7839 44 c-25 -34 -62 -78 -82 -97 -32 -29
-28 -21 22 45 33 44 68 93 79 109 10 16 20 24 22 17 2 -6 -16 -39 -41 -74z
m-7722 -84 c36 -41 63 -78 60 -82 -8 -7 -205 194 -205 210 0 17 75 -49 145
-128z m7695 127 c0 -12 -190 -210 -202 -210 -18 0 13 39 101 129 90 91 101
100 101 81z m-7730 -32 c0 -6 -7 -5 -15 2 -8 7 -15 17 -15 22 0 6 7 5 15 -2 8
-7 15 -17 15 -22z m7645 13 c-3 -6 -11 -11 -17 -11 -6 0 -6 6 2 15 14 17 26
13 15 -4z m-7319 -184 c24 -45 9 -44 -20 2 -14 22 -26 43 -26 47 0 13 32 -20
46 -49z m6994 14 c-18 -36 -40 -61 -40 -46 0 17 46 85 57 85 2 0 -6 -18 -17
-39z m-4159 18 c55 -12 389 -175 389 -190 0 -14 -28 -11 -54 6 -64 42 -353
115 -456 115 -35 0 -60 -3 -57 -6 4 -4 57 -15 119 -24 62 -10 129 -25 148 -34
l35 -16 -45 5 c-25 4 -64 9 -87 12 -27 4 -43 2 -43 -5 0 -5 69 -26 154 -47 84
-20 162 -42 172 -50 17 -13 10 -14 -61 -15 -193 0 -401 66 -511 163 -49 43
-56 73 -21 87 32 13 256 12 318 -1z m1613 1 c38 -14 32 -43 -18 -87 -110 -97
-318 -163 -511 -163 -71 1 -78 2 -61 15 10 8 88 31 172 51 85 20 154 41 154
47 0 6 -17 7 -42 4 -24 -3 -63 -8 -88 -12 l-45 -5 35 16 c19 9 86 24 148 34
62 9 115 20 119 24 3 3 -22 6 -57 6 -103 0 -392 -73 -456 -115 -26 -17 -54
-20 -54 -6 0 13 332 178 382 189 57 13 290 15 322 2z m-4684 -75 c20 -24 6
-28 -15 -5 -10 11 -13 20 -8 20 6 0 16 -7 23 -15z m7455 -5 c-10 -11 -20 -18
-23 -15 -7 6 18 35 31 35 5 0 2 -9 -8 -20z m-5975 -50 c95 -32 230 -101 342
-176 90 -61 114 -84 88 -84 -6 0 -49 22 -98 50 -129 73 -292 144 -304 132 -6
-6 28 -28 104 -65 117 -57 322 -176 348 -203 13 -14 12 -14 -15 -4 -53 20
-245 118 -272 139 -27 22 -58 27 -68 11 -8 -13 57 -52 203 -123 68 -33 121
-61 119 -63 -7 -7 -162 47 -234 82 -143 68 -313 203 -383 303 l-24 34 65 -6
c35 -3 93 -15 129 -27z m4649 -2 c-69 -99 -240 -234 -382 -302 -73 -35 -228
-89 -234 -82 -2 2 51 30 119 63 146 71 211 110 203 123 -10 16 -40 12 -66 -9
-25 -20 -226 -123 -275 -141 -95 -36 160 122 334 207 74 36 110 59 104 65 -13
13 -146 -45 -287 -123 -58 -32 -110 -59 -116 -59 -23 0 -4 20 64 67 193 134
391 220 510 222 l48 1 -22 -32z m-6013 -46 c-8 -7 -25 8 -37 31 -11 21 -10 21
15 -2 14 -14 24 -26 22 -29z m7242 26 c-8 -12 -21 -24 -29 -26 -8 -3 -3 7 10
22 30 32 39 34 19 4z m-8053 -18 c77 -14 207 -57 231 -75 25 -19 21 -19 -171
5 -187 23 -259 26 -253 8 6 -17 37 -23 203 -43 132 -16 335 -51 344 -61 11
-11 -10 -10 -83 2 -91 16 -118 8 -61 -18 l40 -17 -91 -1 c-151 0 -391 58 -531
128 -66 34 -104 69 -82 76 8 2 21 7 29 10 25 9 361 -1 425 -14z m9283 7 c34
-22 -76 -87 -229 -137 -133 -44 -278 -70 -383 -70 l-91 1 40 17 c57 26 30 34
-61 18 -73 -12 -94 -13 -83 -2 9 10 212 45 344 61 166 20 197 26 203 43 6 18
-66 15 -253 -8 -192 -24 -196 -24 -171 -5 41 31 180 68 331 89 54 7 340 1 353
-7z m-5748 -28 c0 -6 -4 -7 -10 -4 -5 3 -10 11 -10 16 0 6 5 7 10 4 6 -3 10
-11 10 -16z m1772 -1 c-7 -7 -12 -8 -12 -2 0 14 12 26 19 19 2 -3 -1 -11 -7
-17z m-1831 -10 c64 -36 48 -50 -26 -23 -45 16 -85 19 -85 7 0 -28 161 -61
320 -66 67 -2 123 -6 126 -9 14 -14 -122 -19 -222 -9 -105 11 -178 29 -233 59
-38 19 -73 17 -69 -4 10 -52 257 -100 457 -90 128 7 145 -9 21 -19 -185 -15
-520 49 -520 100 0 33 84 74 154 75 22 1 55 -8 77 -21z m2030 7 c48 -17 79
-41 79 -61 0 -51 -335 -115 -520 -100 -122 10 -105 25 21 19 202 -10 447 38
457 90 4 21 -31 23 -69 4 -55 -30 -128 -48 -233 -59 -100 -10 -236 -5 -222 9
3 3 59 7 126 9 159 5 320 38 320 66 0 12 -40 9 -85 -7 -74 -26 -90 -13 -27 23
44 26 93 28 153 7z m-4241 -6 c11 -8 12 -12 3 -16 -7 -2 -23 -13 -35 -24 -23
-19 -23 -19 -4 -34 20 -15 19 -15 -1 -15 -27 0 -45 23 -45 56 0 40 46 58 82
33z m1805 -9 c16 -17 16 -20 2 -20 -8 0 -29 -8 -46 -17 -39 -23 -61 -7 -43 32
14 31 61 34 87 5z m2777 -5 c18 -39 -4 -55 -43 -32 -17 9 -38 17 -46 17 -14 0
-14 3 2 20 26 29 73 26 87 -5z m1787 16 c17 -11 18 -56 1 -76 -7 -8 -22 -15
-33 -15 -20 0 -21 0 -1 15 19 15 19 15 -4 34 -12 11 -28 22 -35 24 -9 4 -8 8
3 16 18 13 50 14 69 2z m-3993 -48 c-7 -7 -26 7 -26 19 0 6 6 6 15 -2 9 -7 13
-15 11 -17z m1569 8 c-3 -6 -11 -11 -17 -11 -6 0 -6 6 2 15 14 17 26 13 15 -4z
m-3624 -31 c20 -16 21 -21 10 -29 -8 -5 -21 -7 -29 -3 -8 3 -21 -3 -28 -13
-11 -15 -16 -16 -29 -5 -20 17 -19 47 3 59 26 16 47 13 73 -9z m5730 10 c23
-13 25 -43 4 -60 -13 -11 -18 -10 -29 5 -7 10 -20 16 -28 13 -8 -4 -21 -2 -29
3 -11 8 -10 13 10 29 26 22 43 25 72 10z m-5320 -30 c35 -11 100 -40 144 -66
44 -25 112 -62 150 -81 39 -20 64 -38 57 -41 -20 -7 -94 24 -228 94 -67 35
-124 64 -128 64 -4 0 -4 -9 -1 -20 9 -29 -7 -25 -40 10 -33 35 -43 37 -61 13
-12 -17 -14 -17 -31 0 -17 18 -17 19 1 33 27 19 62 18 137 -6z m4975 6 c18
-14 18 -15 1 -33 -17 -17 -19 -17 -31 0 -18 24 -28 22 -61 -13 -33 -35 -49
-39 -40 -10 3 11 3 20 -1 20 -4 0 -61 -29 -128 -64 -134 -70 -208 -101 -228
-94 -7 3 12 17 42 33 30 15 95 50 145 79 145 83 257 114 301 82z m-4128 -22
c24 -16 29 -48 10 -60 -6 -4 -17 1 -24 11 -10 14 -17 15 -27 7 -25 -21 -39 22
-15 46 16 16 29 15 56 -4z m1138 1 c-23 -17 -36 -19 -36 -6 0 11 18 19 40 20
11 0 10 -3 -4 -14z m888 9 c17 -6 22 -24 8 -24 -5 0 -17 7 -28 15 -19 15 -8
20 20 9z m1179 -15 c6 -9 7 -24 3 -34 -5 -14 -9 -15 -21 -5 -13 11 -18 10 -29
-5 -15 -21 -36 -12 -36 15 0 21 38 52 59 48 8 -2 18 -10 24 -19z m-6250 -50
c20 -5 37 -14 37 -19 0 -5 -20 -2 -45 7 -25 8 -45 17 -45 19 0 6 12 5 53 -7z
m9287 7 c0 -2 -20 -11 -45 -19 -25 -9 -45 -12 -45 -7 0 5 15 14 33 19 36 10
57 13 57 7z m-9382 -27 c26 -12 89 -30 142 -39 l95 -18 -68 -1 c-108 -2 -278
44 -262 69 10 16 43 12 93 -11z m4582 17 c0 -3 -4 -8 -10 -11 -5 -3 -10 -1
-10 4 0 6 5 11 10 11 6 0 10 -2 10 -4z m280 -6 c0 -5 -2 -10 -4 -10 -3 0 -8 5
-11 10 -3 6 -1 10 4 10 6 0 11 -4 11 -10z m4655 0 c16 -25 -154 -71 -262 -69
l-68 1 95 18 c53 9 116 27 140 38 49 23 85 28 95 12z m-7149 -37 c-7 -7 -26 7
-26 19 0 6 6 6 15 -2 9 -7 13 -15 11 -17z m4709 8 c-3 -6 -11 -11 -17 -11 -6
0 -6 6 2 15 14 17 26 13 15 -4z m-7192 -11 c22 -31 79 -50 174 -56 97 -7 300
9 408 32 105 23 154 28 132 14 -32 -20 -205 -59 -317 -71 -202 -21 -430 25
-430 88 0 19 17 16 33 -7z m9687 7 c0 -63 -228 -109 -430 -88 -112 12 -285 51
-317 71 -22 14 27 9 132 -14 108 -23 311 -39 408 -32 95 6 152 25 174 56 16
23 33 26 33 7z m-9165 -17 c4 -6 -18 -10 -59 -10 -36 0 -68 5 -71 10 -4 6 18
10 59 10 36 0 68 -4 71 -10z m8740 0 c-3 -5 -35 -10 -71 -10 -41 0 -63 4 -59
10 3 6 35 10 71 10 41 0 63 -4 59 -10z m-6700 -12 c14 -6 25 -15 25 -20 0 -11
-7 -10 -40 7 -47 24 -34 36 15 13z m4575 7 c0 -5 -55 -35 -65 -35 -14 0 -3 18
18 28 24 11 47 15 47 7z m-2648 -37 c-7 -7 -12 -8 -12 -2 0 14 12 26 19 19 2
-3 -1 -11 -7 -17z m688 1 c0 -6 -4 -7 -10 -4 -5 3 -10 11 -10 16 0 6 5 7 10 4
6 -3 10 -11 10 -16z m-2600 -39 c0 -5 -13 -4 -30 1 -16 6 -30 15 -30 19 0 5
14 4 30 -1 17 -6 30 -15 30 -19z m60 20 c0 -5 -2 -10 -4 -10 -3 0 -8 5 -11 10
-3 6 -1 10 4 10 6 0 11 -4 11 -10z m4400 6 c0 -3 -4 -8 -10 -11 -5 -3 -10 -1
-10 4 0 6 5 11 10 11 6 0 10 -2 10 -4z m100 -5 c0 -5 -14 -14 -31 -20 -23 -8
-30 -8 -27 1 3 7 15 15 29 19 13 4 25 7 27 8 1 1 2 -3 2 -8z m-2836 -52 c-7
-13 -67 -39 -86 -39 -13 1 70 49 85 50 5 0 5 -5 1 -11z m1106 -14 c25 -13 39
-24 32 -25 -19 0 -79 26 -86 39 -11 16 4 13 54 -14z m-2560 -5 c27 -7 15 -9
-50 -6 -47 2 -96 9 -110 15 -20 9 -10 10 50 6 41 -3 91 -10 110 -15z m4120 8
c-24 -10 -205 -23 -185 -13 17 8 118 23 165 23 40 1 42 0 20 -10z m-5990 -73
c0 -32 -26 -85 -42 -85 -17 0 -48 31 -48 47 0 21 46 63 70 63 15 0 20 -6 20
-25z m7765 0 c14 -13 25 -31 25 -39 0 -14 -36 -46 -52 -46 -12 0 -38 57 -38
85 0 33 32 34 65 0z m-6040 -85 c7 -12 -32 -12 -60 0 -16 7 -13 9 17 9 20 1
40 -3 43 -9z m4310 0 c-28 -12 -67 -12 -60 0 3 6 23 10 43 9 30 0 33 -2 17 -9z
m-4170 -9 c3 -5 -4 -12 -15 -16 -26 -8 -82 4 -74 16 7 12 81 12 89 0z m818 2
c-13 -2 -33 -2 -45 0 -13 2 -3 4 22 4 25 0 35 -2 23 -4z m2380 0 c-13 -2 -33
-2 -45 0 -13 2 -3 4 22 4 25 0 35 -2 23 -4z m861 -2 c8 -12 -48 -24 -74 -16
-11 4 -18 11 -15 16 8 12 82 12 89 0z m-3724 -11 c0 -12 -87 -12 -115 0 -14 6
1 9 48 9 38 1 67 -3 67 -9z m210 0 c0 -12 -47 -12 -75 0 -15 6 -8 9 28 9 26 1
47 -3 47 -9z m2955 0 c-28 -12 -75 -12 -75 0 0 6 21 10 48 9 35 0 42 -3 27 -9z
m250 0 c-28 -12 -115 -12 -115 0 0 6 29 10 68 9 46 0 61 -3 47 -9z m-5295 -9
c0 -5 -10 -11 -22 -13 -32 -5 -33 -26 -1 -39 27 -10 27 -11 9 -25 -28 -20 -66
-17 -93 8 -27 26 -30 53 -5 67 22 13 112 14 112 2z m7171 -1 c25 -14 24 -38
-3 -67 -24 -26 -65 -30 -94 -9 -18 14 -18 15 9 25 32 13 31 34 -1 39 -12 2
-22 8 -22 13 0 12 87 12 111 -1z m-4118 -111 c27 -43 -26 -98 -80 -84 -31 7
-29 36 3 75 29 33 59 37 77 9z m1031 -10 c45 -53 25 -89 -38 -73 -58 14 -62
104 -5 104 10 0 29 -14 43 -31z m-3169 -8 c35 -8 51 -5 -241 -51 -208 -33
-321 -58 -329 -71 -11 -17 96 -9 268 20 196 33 295 46 286 37 -9 -9 -204 -46
-244 -46 -18 0 -36 -4 -39 -9 -10 -15 34 -20 116 -14 142 11 75 -34 -95 -63
-71 -13 -132 -15 -267 -11 -235 7 -270 19 -213 71 62 58 234 125 353 139 59 7
373 5 405 -2z m5734 -15 c119 -30 289 -127 278 -159 -7 -21 -62 -29 -237 -34
-135 -4 -196 -2 -267 11 -166 29 -237 74 -100 63 79 -6 130 0 121 14 -3 5 -21
9 -39 9 -40 0 -235 37 -244 46 -9 9 90 -4 286 -37 172 -29 279 -37 268 -20 -8
13 -121 38 -329 71 -293 46 -276 43 -241 51 56 14 434 2 504 -15z m-4299 -47
c-72 -39 -298 -186 -350 -228 -14 -11 -19 -21 -12 -21 17 0 79 32 166 86 39
24 74 44 77 44 4 0 5 -9 2 -20 -7 -28 5 -25 62 13 28 19 86 53 130 76 l80 43
-101 -99 c-108 -106 -205 -170 -336 -223 -101 -40 -308 -80 -308 -60 0 15 88
112 153 169 183 163 358 259 472 260 l40 1 -75 -41z m2411 25 c103 -30 247
-121 386 -245 65 -57 153 -154 153 -169 0 -20 -207 20 -308 60 -131 53 -228
117 -336 223 l-101 99 80 -43 c44 -23 102 -57 130 -76 57 -38 69 -41 62 -13
-3 11 -2 20 2 20 3 0 38 -20 77 -44 87 -54 149 -86 166 -86 7 0 2 10 -12 21
-52 42 -278 189 -350 228 -73 39 -74 41 -39 41 19 0 60 -7 90 -16z m-1443 -39
c3 -40 -31 -95 -60 -95 -47 0 -73 54 -44 93 18 24 23 22 31 -14 5 -21 12 -29
23 -27 13 3 16 13 15 42 -2 31 1 37 15 34 11 -2 18 -14 20 -33z m459 -2 c-1
-28 2 -38 15 -41 11 -2 18 6 23 27 8 36 13 38 31 14 29 -38 4 -93 -43 -93 -39
0 -83 97 -56 123 18 19 32 5 30 -30z m-2832 -100 c-160 -149 -321 -211 -637
-249 -69 -8 -108 0 -108 22 0 30 62 125 87 135 31 12 120 12 127 0 7 -10 -27
-21 -66 -21 -33 0 -58 -9 -58 -21 0 -25 131 0 423 81 37 10 67 15 67 11 0 -10
-118 -64 -195 -89 -60 -19 -132 -33 -273 -51 -80 -10 -94 -17 -72 -32 23 -15
184 -4 275 20 155 39 281 101 400 195 90 71 107 71 30 -1z m5203 -2 c128 -97
242 -153 397 -192 91 -24 252 -35 275 -20 22 15 8 22 -72 32 -141 18 -213 32
-273 51 -77 25 -195 79 -195 89 0 4 48 -6 108 -22 265 -73 382 -94 382 -70 0
12 -25 21 -58 21 -39 0 -73 11 -66 21 7 12 96 12 127 0 25 -10 87 -105 87
-134 0 -36 -86 -33 -299 9 -148 29 -245 65 -326 121 -64 43 -186 152 -172 153
5 0 43 -26 85 -59z m-3848 39 c0 -5 -5 -10 -11 -10 -5 0 -7 5 -4 10 3 6 8 10
11 10 2 0 4 -4 4 -10z m246 -58 c-94 -186 -411 -462 -531 -462 -63 0 -70 38
-26 134 32 71 43 82 61 61 7 -8 18 -15 24 -15 6 0 54 31 106 70 52 38 99 70
104 70 22 0 -56 -67 -154 -132 -58 -39 -106 -74 -108 -79 -6 -15 37 -10 71 7
46 24 100 67 196 157 86 81 117 95 64 29 -42 -53 -183 -164 -261 -206 -77 -41
-108 -63 -100 -71 11 -11 105 32 181 84 111 75 199 162 302 299 50 65 91 116
93 111 2 -4 -8 -30 -22 -57z m2199 -240 c36 -34 100 -85 142 -114 76 -51 170
-94 181 -83 8 8 -23 30 -100 71 -78 42 -219 153 -261 206 -53 66 -22 52 64
-29 96 -90 150 -133 196 -157 34 -17 77 -22 71 -7 -1 5 -50 40 -108 79 -98 65
-176 132 -154 132 5 0 52 -32 104 -70 52 -39 100 -70 106 -70 6 0 17 7 24 15
18 21 27 11 61 -61 44 -97 37 -134 -25 -134 -120 0 -438 276 -531 461 -45 87
-26 73 70 -53 52 -69 124 -153 160 -186z m30 298 c3 -5 1 -10 -4 -10 -6 0 -11
5 -11 10 0 6 2 10 4 10 3 0 8 -4 11 -10z m-3113 -67 c19 -17 24 -43 9 -43 -5
0 -11 7 -15 15 -3 8 -10 15 -16 15 -13 0 -13 -37 0 -45 18 -11 10 -25 -14 -25
-46 0 -74 58 -44 88 17 17 58 15 80 -5z m3816 5 c30 -30 2 -88 -44 -88 -24 0
-32 14 -14 25 13 8 13 45 0 45 -6 0 -13 -7 -16 -15 -7 -18 -24 -20 -24 -3 0
37 70 64 98 36z m-4210 -81 c6 3 12 -2 12 -11 0 -17 -41 -31 -65 -22 -15 5
-21 47 -8 59 3 4 16 -1 27 -12 12 -10 27 -16 34 -14z m4592 -3 c0 -14 -7 -27
-15 -30 -24 -10 -65 5 -65 22 0 10 6 14 14 11 8 -3 22 3 31 13 21 24 35 17 35
-16z"/>
<path d="M5876 12125 c-8 -21 1 -35 20 -35 10 0 14 8 12 22 -4 27 -23 34 -32
13z"/>
<path d="M6897 12133 c-13 -12 -7 -43 7 -43 19 0 28 14 20 34 -7 17 -16 20
-27 9z"/>
<path d="M671 6921 c-18 -12 -5 -31 20 -31 14 0 19 6 17 17 -4 20 -18 26 -37
14z"/>
<path d="M12097 6923 c-14 -13 -6 -33 12 -33 25 0 38 20 20 31 -17 11 -24 11
-32 2z"/>
<path d="M664 5899 c-7 -12 15 -31 31 -26 6 2 11 11 13 20 4 19 -32 24 -44 6z"/>
<path d="M12092 5893 c4 -20 18 -26 37 -14 18 12 5 31 -20 31 -14 0 -19 -6
-17 -17z"/>
<path d="M5876 701 c-9 -14 5 -42 18 -38 18 6 20 47 2 47 -8 0 -17 -4 -20 -9z"/>
<path d="M6890 691 c0 -25 19 -38 31 -20 12 19 6 33 -14 37 -11 2 -17 -3 -17
-17z"/>
</g>
</svg>
